<svg width="32" height="32" viewBox="0 0 32 32" fill="none" xmlns="http://www.w3.org/2000/svg">
<rect width="32" height="32" rx="16" fill="#072F4F"/>
<g clip-path="url(#clip0)">
<path d="M23.375 15.375H10.1388L12.3314 13.193C12.5761 12.9495 12.577 12.5538 12.3335 12.3091C12.09 12.0644 11.6943 12.0635 11.4496 12.307L8.18385 15.557C8.18363 15.5572 8.18347 15.5574 8.18329 15.5576C7.93925 15.8011 7.93847 16.1981 8.18322 16.4424C8.18344 16.4426 8.1836 16.4428 8.18379 16.443L11.4495 19.693C11.6942 19.9364 12.0899 19.9356 12.3334 19.6909C12.5769 19.4462 12.576 19.0505 12.3313 18.807L10.1388 16.625H23.375C23.7202 16.625 24 16.3452 24 16C24 15.6548 23.7202 15.375 23.375 15.375Z" fill="#FFFDF2" fill-opacity="0.87"/>
</g>
<defs>
<clipPath id="clip0">
<rect x="8" y="8" width="16" height="16" fill="white"/>
</clipPath>
</defs>
</svg>
