<svg width="32" height="32" viewBox="0 0 32 32" fill="none" xmlns="http://www.w3.org/2000/svg">
<rect width="32" height="32" rx="16" fill="#072F4F"/>
<g clip-path="url(#clip0)">
<path d="M8.62502 15.375H21.8612L19.6686 13.193C19.4239 12.9495 19.423 12.5538 19.6665 12.3091C19.91 12.0644 20.3057 12.0635 20.5504 12.307L23.8161 15.557C23.8164 15.5572 23.8165 15.5574 23.8167 15.5576C24.0607 15.8011 24.0615 16.1981 23.8168 16.4424C23.8165 16.4426 23.8164 16.4428 23.8162 16.443L20.5505 19.693C20.3058 19.9364 19.9101 19.9356 19.6665 19.6909C19.423 19.4462 19.424 19.0505 19.6686 18.807L21.8612 16.625H8.62502C8.27983 16.625 8.00002 16.3452 8.00002 16C8.00002 15.6548 8.27983 15.375 8.62502 15.375Z" fill="#FFFDF2" fill-opacity="0.87"/>
</g>
<defs>
<clipPath id="clip0">
<rect width="16" height="16" transform="matrix(-1 0 0 1 24 8)" fill="white"/>
</clipPath>
</defs>
</svg>
