<svg width="21" height="8" viewBox="0 0 21 8" fill="none" xmlns="http://www.w3.org/2000/svg">
<path d="M20.6748 3.82325L14.4248 0.073248C14.262 -0.024416 13.9984 -0.024416 13.8356 0.073248C13.6729 0.170912 13.6729 0.329115 13.8356 0.426756L19.3744 3.75001H1.21355C0.983242 3.75001 0.796875 3.86183 0.796875 4.00001C0.796875 4.1382 0.983242 4.25002 1.21355 4.25002H19.3744L13.8356 7.57325C13.6729 7.67091 13.6729 7.82911 13.8356 7.92675C13.917 7.97557 14.0236 8 14.1302 8C14.2368 8 14.3434 7.97557 14.4248 7.92675L20.6748 4.17675C20.8376 4.07911 20.8376 3.92091 20.6748 3.82325Z" fill="#072F4F"/>
</svg>
