<svg width="96" height="96" viewBox="0 0 96 96" fill="none" xmlns="http://www.w3.org/2000/svg">
<rect width="96" height="96" rx="24" fill="#EEEEEE"/>
<path d="M68.8794 20H68.7738H63.3544H34.4512V46.1935H36.2576V21.8065H63.3544V26.3226H38.0641V45.2903H63.3544V74.1935H36.2576V68.7742H34.4512V76H63.3544H68.7738H68.8794C72.8058 76 75.9996 72.8062 75.9996 68.8799V27.1201C75.9996 23.1938 72.8058 20 68.8794 20ZM39.8705 43.4839V28.129H63.3544V43.4839H39.8705ZM65.1608 74.1935V21.8065H66.9673V74.1935H65.1608ZM68.7738 28.129H70.5802V43.4839H68.7738V28.129ZM74.1931 68.8799C74.1931 71.8099 71.8095 74.1935 68.8794 74.1935H68.7738V45.2903H72.3867V26.3226H68.7738V21.8065H68.8794C71.8095 21.8065 74.1931 24.1901 74.1931 27.1201V68.8799Z" fill="#072F4F"/>
<path d="M31.7401 45.2904C25.2667 45.2904 20 50.5571 20 57.0305V57.3747C20 60.8692 21.5391 64.1579 24.2244 66.3943L31.7419 72.66L39.2577 66.3943C41.943 64.1561 43.483 60.8692 43.483 57.3747V57.0305C43.483 50.5571 38.2154 45.2904 31.7401 45.2904ZM31.7419 62.4517C28.7486 62.4517 26.3226 60.0256 26.3226 57.0323C26.3226 54.0391 28.7486 51.613 31.7419 51.613C34.7352 51.613 37.1613 54.0391 37.1613 57.0323C37.1613 60.0256 34.7352 62.4517 31.7419 62.4517Z" fill="#F9BA48"/>
<path d="M38.0729 57.0322C38.0729 53.5466 35.2359 50.7096 31.7503 50.7096C28.2648 50.7096 25.4277 53.5466 25.4277 57.0322C25.4277 60.5177 28.2648 63.3547 31.7503 63.3547C35.2359 63.3547 38.0729 60.5177 38.0729 57.0322ZM31.7503 61.5483C29.2601 61.5483 27.2342 59.5223 27.2342 57.0322C27.2342 54.542 29.2601 52.516 31.7503 52.516C34.2405 52.516 36.2664 54.542 36.2664 57.0322C36.2664 59.5223 34.2405 61.5483 31.7503 61.5483Z" fill="#072F4F"/>
</svg>
