<svg width="96" height="96" viewBox="0 0 96 96" fill="none" xmlns="http://www.w3.org/2000/svg">
<rect width="96" height="96" rx="24" fill="#EEEEEE"/>
<path d="M36.2819 66.5161H25.4189V43.0322H36.2819V44.8387H27.2254V64.7096H36.2819V66.5161Z" fill="#072F4F"/>
<path d="M63.3552 66.5161H52.4922V64.7096H61.5487V44.8387H52.4922V43.0322H63.3552V66.5161Z" fill="#072F4F"/>
<path d="M44.3872 69.2258C36.4191 69.2258 29.9355 62.7422 29.9355 54.7742C29.9355 46.8061 36.4191 40.3226 44.3872 40.3226C52.3552 40.3226 58.8388 46.8061 58.8388 54.7742C58.8388 62.7422 52.3552 69.2258 44.3872 69.2258Z" fill="#F0BC5E"/>
<path d="M44.3873 43.9355C41.8576 43.9355 39.3953 44.8268 37.4521 46.4471L38.6094 47.8337C39.9951 46.6787 41.6993 45.9722 43.4832 45.7918V48.4516H45.2897V45.7878C49.55 46.2134 52.9481 49.6106 53.3728 53.871H50.7099V55.6774H53.3697C53.1894 57.4623 52.4828 59.1664 51.3278 60.5512L52.7144 61.708C54.3347 59.7662 55.226 57.3039 55.226 54.7742C55.226 48.7974 50.3641 43.9355 44.3873 43.9355Z" fill="#072F4F"/>
<path d="M45.2908 63.7566V61.0968H43.4843V63.7606C39.224 63.335 35.8259 59.9377 35.4011 55.6774H38.065V53.871H35.4051C35.5855 52.0861 36.292 50.382 37.4471 48.9971L36.0605 47.8403C34.4401 49.7822 33.5488 52.2444 33.5488 54.7742C33.5488 60.751 38.4107 65.6129 44.3875 65.6129C46.9173 65.6129 49.3795 64.7216 51.3227 63.1012L50.1655 61.7146C48.7797 62.8688 47.0756 63.5762 45.2908 63.7566Z" fill="#072F4F"/>
<path d="M43.4834 50.2581V55.6774H47.0963V53.871H45.2899V50.2581H43.4834Z" fill="#072F4F"/>
<path d="M68.7742 43.9355V32.1936C68.7742 29.7035 66.7481 27.6774 64.2581 27.6774H59.7419V29.4839H64.2581C65.7518 29.4839 66.9677 30.6998 66.9677 32.1936V36.7097H21.8065V32.1936C21.8065 30.6998 23.0224 29.4839 24.5161 29.4839H29.0323V27.6774H24.5161C22.0261 27.6774 20 29.7035 20 32.1936V72.8387H68.7742V63.8065H66.9677V71.0323H21.8065V38.5161H66.9677V43.9355H68.7742Z" fill="#072F4F"/>
<path d="M32.6455 27.6774H38.0649V29.4839H32.6455V27.6774Z" fill="#072F4F"/>
<path d="M41.6777 27.6774H47.0971V29.4839H41.6777V27.6774Z" fill="#072F4F"/>
<path d="M50.71 27.6774H56.1293V29.4839H50.71V27.6774Z" fill="#072F4F"/>
<path d="M74.1934 45.7419H75.9998V47.5484H74.1934V45.7419Z" fill="#072F4F"/>
<path d="M65.1611 45.7419H72.3869V47.5484H65.1611V45.7419Z" fill="#072F4F"/>
<path d="M74.1934 49.3549H75.9998V51.1613H74.1934V49.3549Z" fill="#072F4F"/>
<path d="M65.1611 49.3549H72.3869V51.1613H65.1611V49.3549Z" fill="#072F4F"/>
<path d="M30.8386 34C29.3448 34 28.1289 32.7841 28.1289 31.2903V25.871C28.1289 24.3772 29.3448 23.1613 30.8386 23.1613C32.3323 23.1613 33.5483 24.3772 33.5483 25.871V31.2903C33.5483 32.7841 32.3323 34 30.8386 34Z" fill="#F0BC5E"/>
<path d="M39.8708 34C38.377 34 37.1611 32.7841 37.1611 31.2903V25.871C37.1611 24.3772 38.377 23.1613 39.8708 23.1613C41.3646 23.1613 42.5805 24.3772 42.5805 25.871V31.2903C42.5805 32.7841 41.3646 34 39.8708 34Z" fill="#F0BC5E"/>
<path d="M48.903 34C47.4093 34 46.1934 32.7841 46.1934 31.2903V25.871C46.1934 24.3772 47.4093 23.1613 48.903 23.1613C50.3968 23.1613 51.6127 24.3772 51.6127 25.871V31.2903C51.6127 32.7841 50.3968 34 48.903 34Z" fill="#F0BC5E"/>
<path d="M57.9353 34C56.4415 34 55.2256 32.7841 55.2256 31.2903V25.871C55.2256 24.3772 56.4415 23.1613 57.9353 23.1613C59.429 23.1613 60.6449 24.3772 60.6449 25.871V31.2903C60.6449 32.7841 59.429 34 57.9353 34Z" fill="#F0BC5E"/>
<path d="M74.1934 52.9677H75.9998V54.7742H74.1934V52.9677Z" fill="#072F4F"/>
<path d="M65.1611 52.9677H72.3869V54.7742H65.1611V52.9677Z" fill="#072F4F"/>
<path d="M74.1934 56.5806H75.9998V58.3871H74.1934V56.5806Z" fill="#072F4F"/>
<path d="M65.1611 56.5806H72.3869V58.3871H65.1611V56.5806Z" fill="#072F4F"/>
<path d="M74.1934 60.1935H75.9998V62H74.1934V60.1935Z" fill="#072F4F"/>
<path d="M65.1611 60.1935H72.3869V62H65.1611V60.1935Z" fill="#072F4F"/>
</svg>
