<svg width="96" height="96" viewBox="0 0 96 96" fill="none" xmlns="http://www.w3.org/2000/svg">
<rect width="96" height="96" rx="24" fill="#EEEEEE"/>
<g clip-path="url(#clip0)">
<path d="M48.4514 60.6452L32.1934 48.9032V20H70.1288V48.9032L53.8708 60.6452L51.1611 58.8387L48.4514 60.6452Z" fill="#F9BA48"/>
<path d="M43.8305 37.9498L42.22 39.5611L46.0515 43.3926L47.6629 41.7822C47.9194 41.905 48.1822 42.0134 48.4514 42.1082V44.3871H53.8707V42.1091C54.1399 42.0143 54.4027 41.905 54.6593 41.7831L56.2706 43.3935L60.1021 39.562L58.4917 37.9507C58.6145 37.6942 58.7229 37.4313 58.8177 37.1622H61.0966V31.7428H58.8186C58.7238 31.4737 58.6145 31.2108 58.4926 30.9543L60.103 29.343L56.2715 25.5115L54.6602 27.1219C54.4027 26.9982 54.1399 26.8898 53.8707 26.794V24.5161H48.4514V26.794C48.1822 26.8889 47.9194 26.9982 47.6629 27.1201L46.0515 25.5097L42.22 29.3411L43.8305 30.9525C43.7077 31.209 43.5993 31.4719 43.5044 31.741H41.2256V37.1604H43.5035C43.5993 37.4304 43.7077 37.6933 43.8305 37.9498ZM43.032 33.5484H44.871L45.0453 32.871C45.1935 32.2983 45.4202 31.7519 45.7191 31.246L46.075 30.6427L44.7744 29.342L46.0515 28.0649L47.3522 29.3655L47.9555 29.0097C48.4613 28.7107 49.0078 28.484 49.5804 28.3359L50.2578 28.1615V26.3226H52.0643V28.1615L52.7417 28.3359C53.3144 28.484 53.8608 28.7107 54.3666 29.0097L54.97 29.3655L56.2706 28.0649L57.5478 29.342L56.2471 30.6427L56.603 31.246C56.902 31.7519 57.1287 32.2983 57.2768 32.871L57.4511 33.5484H59.2901V35.3548H57.4511L57.2768 36.0322C57.1287 36.6049 56.902 37.1513 56.603 37.6571L56.2471 38.2605L57.5478 39.5611L56.2706 40.8383L54.97 39.5377L54.3666 39.8935C53.8608 40.1925 53.3144 40.4192 52.7417 40.5673L52.0643 40.7417V42.5806H50.2578V40.7417L49.5804 40.5673C49.0078 40.4192 48.4613 40.1925 47.9555 39.8935L47.3522 39.5377L46.0515 40.8383L44.7744 39.5611L46.075 38.2605L45.7191 37.6571C45.4202 37.1513 45.1935 36.6049 45.0453 36.0322L44.871 35.3548H43.032V33.5484Z" fill="#072F4F"/>
<path d="M51.1608 38.0645C53.1533 38.0645 54.7737 36.4441 54.7737 34.4516C54.7737 32.4591 53.1533 30.8387 51.1608 30.8387C49.1682 30.8387 47.5479 32.4591 47.5479 34.4516C47.5479 36.4441 49.1682 38.0645 51.1608 38.0645ZM51.1608 32.6451C52.157 32.6451 52.9672 33.4553 52.9672 34.4516C52.9672 35.4478 52.157 36.258 51.1608 36.258C50.1645 36.258 49.3543 35.4478 49.3543 34.4516C49.3543 33.4553 50.1645 32.6451 51.1608 32.6451Z" fill="#072F4F"/>
<path d="M39.4189 28.129H20.4512V29.9355H39.4189V28.129Z" fill="#072F4F"/>
<path d="M39.4191 31.7419H22.2578V33.5484H39.4191V31.7419Z" fill="#072F4F"/>
<path d="M39.4193 35.3548H24.0645V37.1612H39.4193V35.3548Z" fill="#072F4F"/>
<path d="M70.1282 40.3036V42.5084L73.1188 44.6011L53.8403 59.4312L51.1604 57.5552L48.4806 59.4312L29.2021 44.602L32.1927 42.5093V40.7742H39.4185V38.9677H25.8701V40.7742H31.5207L26.7733 44.098V76H75.5475V44.098L70.1282 40.3036ZM28.5798 46.4022L46.9297 60.5169L28.5798 73.3616V46.4022ZM30.5416 74.1935L51.1604 59.7609L71.7793 74.1935H30.5416ZM73.7411 73.3616L55.3911 60.5169L73.7411 46.4022V73.3616Z" fill="#072F4F"/>
</g>
<defs>
<clipPath id="clip0">
<rect x="20" y="20" width="56" height="56" fill="white"/>
</clipPath>
</defs>
</svg>
