<svg width="96" height="96" viewBox="0 0 96 96" fill="none" xmlns="http://www.w3.org/2000/svg">
<rect width="96" height="96" rx="24" fill="white"/>
<path d="M48.9155 56.7798H47.085V75.9999H48.9155V56.7798Z" fill="#F4C70B"/>
<path d="M44.3393 56.7798H42.5088V71.4236H44.3393V56.7798Z" fill="#F4C70B"/>
<path d="M39.7631 65.0171H37.9326V66.8476H39.7631V65.0171Z" fill="#F4C70B"/>
<path d="M39.7631 56.7798H37.9326V63.1864H39.7631V56.7798Z" fill="#F4C70B"/>
<path d="M53.4917 69.5933H51.6611V71.4238H53.4917V69.5933Z" fill="#F4C70B"/>
<path d="M53.4917 56.7798H51.6611V67.7627H53.4917V56.7798Z" fill="#F4C70B"/>
<path d="M58.0678 56.7798H56.2373V66.8474H58.0678V56.7798Z" fill="#F4C70B"/>
<path d="M48.0004 42.136C51.5387 42.136 54.407 39.2677 54.407 35.7294C54.407 32.1911 51.5387 29.3228 48.0004 29.3228C44.4621 29.3228 41.5938 32.1911 41.5938 35.7294C41.5938 39.2677 44.4621 42.136 48.0004 42.136Z" fill="#F4C70B"/>
<path d="M58.9833 42.2705V36.2638C58.9833 30.4567 56.0591 25.1291 51.1598 22.0108L48.0004 20L44.841 22.0098C39.9418 25.1291 37.0174 30.4567 37.0174 36.2638V42.2705C32.2691 43.1875 28.7803 47.34 28.7803 52.2549V63.1866H30.6108C30.6108 60.158 33.0737 57.6952 36.1022 57.6952H59.8984C62.9269 57.6952 65.3897 60.158 65.3897 63.1866H67.2202V52.2549C67.2204 47.3402 63.7316 43.1877 58.9833 42.2705ZM45.8239 23.5548L48.0004 22.1709L50.1768 23.5557C54.5444 26.3353 57.1528 31.0863 57.1528 36.2638V47.6275H38.8479V36.2638C38.8479 31.0863 41.4563 26.3353 45.8239 23.5548ZM36.1022 55.8647C33.9174 55.8647 31.9533 56.8266 30.6108 58.3487V52.2549C30.6108 48.346 33.3026 45.0282 37.0174 44.146V55.8647H36.1022ZM38.8479 55.8647V49.458H57.1528V55.8647H38.8479ZM65.3899 58.3487C64.0472 56.8266 62.0831 55.8647 59.8986 55.8647H58.9833V44.145C62.6983 45.0282 65.3899 48.346 65.3899 52.254V58.3487Z" fill="#072F4F"/>
<path d="M24.2038 27.4922H22.3735V29.3227H20.543V31.1532H22.3735V32.9836H24.2038V31.1532H26.0343V29.3227H24.2038V27.4922Z" fill="#072F4F"/>
<path d="M28.78 29.3226H30.6105V26.5768H33.3563V24.7463H30.6105V22.0007H28.78V24.7463H26.0342V26.5768H28.78V29.3226Z" fill="#072F4F"/>
<path d="M32.4413 37.5599V35.7294H34.2716V33.8989H32.4413V32.0684H30.6108V33.8989H28.7803V35.7294H30.6108V37.5599H32.4413Z" fill="#072F4F"/>
<path d="M64.4741 32.0683H66.3046V30.2379H68.1351V28.4074H66.3046V26.5769H64.4741V28.4074H62.6436V30.2379H64.4741V32.0683Z" fill="#072F4F"/>
<path d="M75.4576 34.8141H72.7118V32.0684H70.8815V34.8141H68.1357V36.6447H70.8815V39.3904H72.7118V36.6447H75.4576V34.8141Z" fill="#072F4F"/>
<path d="M62.6438 40.3055H64.4743V38.475H66.3048V36.6445H64.4743V34.814H62.6438V36.6445H60.8135V38.475H62.6438V40.3055Z" fill="#072F4F"/>
</svg>
