<svg width="96" height="96" viewBox="0 0 96 96" fill="none" xmlns="http://www.w3.org/2000/svg">
<rect width="96" height="96" rx="24" fill="#EEEEEE"/>
<g clip-path="url(#clip0)">
<path d="M58.8388 68.7742H61.5485V56.1291H59.742V66.9678H29.9356V27.2258H43.484V25.4194H25.4194C22.9294 25.4194 20.9033 27.4455 20.9033 29.9355V71.4839C20.9033 73.9739 22.9294 76 25.4194 76H61.5485V74.1936H58.8388C57.345 74.1936 56.1291 72.9777 56.1291 71.4839C56.1291 69.9901 57.345 68.7742 58.8388 68.7742ZM25.4194 27.2258H28.1291V66.9678H25.4194C24.3989 66.9678 23.4666 67.321 22.7098 67.8944V29.9355C22.7098 28.4417 23.9257 27.2258 25.4194 27.2258ZM25.4194 74.1936C23.9257 74.1936 22.7098 72.9777 22.7098 71.4839C22.7098 69.9901 23.9257 68.7742 25.4194 68.7742H55.2493C54.6759 69.531 54.3227 70.4634 54.3227 71.4839C54.3227 72.5044 54.6759 73.4368 55.2493 74.1936H25.4194Z" fill="#072F4F"/>
<path d="M24.5166 70.5806H26.3231V72.3871H24.5166V70.5806Z" fill="#072F4F"/>
<path d="M28.1289 70.5806H48.9031V72.3871H28.1289V70.5806Z" fill="#072F4F"/>
<path d="M50.71 70.5806H52.5164V72.3871H50.71V70.5806Z" fill="#072F4F"/>
<path d="M56.1289 57.9355C45.6703 57.9355 37.1611 49.4263 37.1611 38.9677C37.1611 28.5092 45.6703 20 56.1289 20C66.5874 20 75.0966 28.5092 75.0966 38.9677C75.0966 49.4263 66.5874 57.9355 56.1289 57.9355Z" fill="#F0BC5E"/>
<path d="M68.4549 41.8869L65.8546 39.2866C65.0779 38.51 64.0027 38.0645 62.9036 38.0645C61.8046 38.0645 60.7294 38.51 59.9518 39.2875L59.158 40.0814C58.2755 40.9621 56.6922 40.9621 55.8097 40.0814L55.0159 39.2875C54.5757 38.846 54.323 38.2361 54.323 37.6129C54.323 36.9897 54.5757 36.3798 55.0167 35.9383L55.8106 35.1445C56.5872 34.3678 57.0327 33.2926 57.0327 32.1936C57.0327 31.0945 56.5872 30.0193 55.8097 29.2418L53.2094 26.6415C52.4327 25.8648 51.3575 25.4194 50.2585 25.4194H50.0697C49.1096 25.4194 48.1711 25.7537 47.4288 26.3605L44.728 28.5661C43.3634 29.6806 42.5811 31.33 42.5811 33.0915V33.2485C42.5811 34.2483 42.8404 35.2393 43.3317 36.1125C46.7144 42.1273 51.6151 47.2079 57.5033 50.8072L58.8969 51.6579C59.8147 52.2198 60.8687 52.5161 61.9444 52.5161C63.6838 52.5161 65.3196 51.7492 66.4336 50.4142L68.7107 47.682C69.3338 46.9332 69.677 45.9841 69.677 45.0094V44.8387C69.6778 43.7397 69.2324 42.6645 68.4549 41.8869ZM64.5782 40.5647L67.1785 43.165C67.6187 43.6056 67.8714 44.2156 67.8714 44.8387V45.0085C67.8714 45.3653 67.7827 45.712 67.6301 46.0291L61.7799 40.1788C62.6725 39.7237 63.8567 39.845 64.5782 40.5647ZM50.2585 27.2258C50.8817 27.2258 51.4916 27.4785 51.9331 27.9196L54.5334 30.5199C54.9735 30.9605 55.2262 31.5704 55.2262 32.1936C55.2262 32.5909 55.1133 32.9786 54.9246 33.3244L49.0606 27.4605C49.3751 27.3127 49.7182 27.2258 50.0697 27.2258H50.2585ZM65.0453 49.2583C64.2766 50.1805 63.1467 50.7097 61.9444 50.7097C61.2013 50.7097 60.4731 50.5046 59.8398 50.1174L58.4453 49.2644C52.8191 45.8271 48.1376 40.9722 44.9062 35.2265C44.5666 34.6232 44.3875 33.9405 44.3875 33.2485V33.0915C44.3875 31.8747 44.9286 30.736 45.8716 29.9655L47.6004 28.5538L53.7258 34.6792C52.9571 35.455 52.5165 36.5218 52.5165 37.6129C52.5165 38.712 52.962 39.7872 53.7395 40.5647L54.5334 41.3586C55.31 42.1352 56.3852 42.5807 57.4843 42.5807C58.5754 42.5807 59.6422 42.1401 60.418 41.3722L66.5254 47.4796L65.0453 49.2583Z" fill="#072F4F"/>
</g>
<defs>
<clipPath id="clip0">
<rect x="20" y="20" width="56" height="56" fill="white"/>
</clipPath>
</defs>
</svg>
