<svg width="96" height="96" viewBox="0 0 96 96" fill="none" xmlns="http://www.w3.org/2000/svg">
<rect width="96" height="96" rx="24" fill="#EEEEEE"/>
<path opacity="0.12" d="M43.625 29.4518V65.7416C49.8664 67.3778 56.7824 65.7687 61.6736 60.8766C69.0053 53.5449 69.0053 41.6581 61.6736 34.3264C56.7824 29.4352 49.8664 27.8164 43.625 29.4518Z" fill="#303030"/>
<path d="M57.061 38.9394C52.2773 34.1558 44.5205 34.1558 39.7368 38.9394C39.5688 39.1074 39.4061 39.2798 39.2495 39.4548L38.077 41C35.039 45.7408 35.592 52.1178 39.7368 56.2635C44.5205 61.0472 52.2773 61.0472 57.061 56.2635C61.8455 51.479 61.8455 43.723 57.061 38.9394Z" fill="#F2F8FF"/>
<path d="M30.4558 59.3566C29.7724 58.6733 28.6647 58.6733 27.9813 59.3566C27.2979 60.04 27.2979 61.1478 27.9813 61.8311L28.5999 62.4498L33.5498 67.3996L34.1684 68.0183C34.8518 68.7016 35.9595 68.7016 36.6429 68.0183C37.3263 67.3349 37.3263 66.2271 36.6429 65.5438L36.0243 64.9251L31.0744 59.9753L30.4558 59.3566Z" fill="#F2F8FF"/>
<path d="M48.875 47.125C50.808 47.125 52.375 45.558 52.375 43.625C52.375 41.692 50.808 40.125 48.875 40.125C46.942 40.125 45.375 41.692 45.375 43.625C45.375 45.558 46.942 47.125 48.875 47.125Z" fill="#F4C70B"/>
<path d="M42.75 53.25V54.125H55V53.25C55 49.8672 52.2577 47.125 48.875 47.125C45.4922 47.125 42.75 49.8672 42.75 53.25Z" fill="#F4C70B"/>
<path d="M48.875 40.125C48.5714 40.125 48.2809 40.1758 48 40.2484C49.5067 40.6386 50.625 41.9957 50.625 43.625C50.625 45.2543 49.5067 46.6105 48 47.0016C48.2809 47.0742 48.5714 47.125 48.875 47.125C50.8079 47.125 52.375 45.5579 52.375 43.625C52.375 41.6921 50.8079 40.125 48.875 40.125Z" fill="#F2F8FF"/>
<path d="M48.875 47.125C48.5775 47.125 48.2861 47.1539 48 47.195C50.9671 47.6202 53.25 50.1656 53.25 53.25V54.125H55V53.25C55 49.8672 52.2578 47.125 48.875 47.125Z" fill="#F2F8FF"/>
<path d="M37.3395 40.5275C34.0407 45.6751 34.7889 52.5526 39.1175 56.8813C41.5963 59.3601 44.8925 60.726 48.3986 60.726C51.9047 60.726 55.2 59.3601 57.6788 56.8813C60.1577 54.4024 61.5236 51.1063 61.5236 47.601C61.5236 44.0958 60.1577 40.7996 57.6788 38.3208C52.561 33.2038 44.2345 33.2029 39.1166 38.3216C38.9372 38.501 38.764 38.6848 38.5968 38.872L39.9023 40.0375C40.0485 39.8739 40.199 39.7146 40.3547 39.558C44.7901 35.1244 52.0071 35.1244 56.4416 39.558C58.5897 41.707 59.7736 44.5639 59.7736 47.601C59.7736 50.6399 58.5897 53.4959 56.4416 55.644C54.2926 57.7921 51.4366 58.976 48.3986 58.976C45.3597 58.976 42.5037 57.7921 40.3547 55.644C36.6027 51.892 35.9544 45.9315 38.8121 41.4725L37.3395 40.5275Z" fill="#072F4F"/>
<path d="M41.875 53.25V54.125C41.875 54.6089 42.267 55 42.75 55H55C55.483 55 55.875 54.6089 55.875 54.125V53.25C55.875 50.422 54.1863 47.986 51.7669 46.8826C52.669 46.0802 53.25 44.9244 53.25 43.625C53.25 41.2126 51.2874 39.25 48.875 39.25C46.4626 39.25 44.5 41.2126 44.5 43.625C44.5 44.9244 45.081 46.0802 45.9831 46.8826C43.5637 47.986 41.875 50.422 41.875 53.25ZM46.25 43.625C46.25 42.1777 47.4278 41 48.875 41C50.3223 41 51.5 42.1777 51.5 43.625C51.5 45.0722 50.3223 46.25 48.875 46.25C47.4278 46.25 46.25 45.0722 46.25 43.625ZM48.875 48C51.7704 48 54.125 50.3546 54.125 53.25H43.625C43.625 50.3546 45.9796 48 48.875 48Z" fill="#072F4F"/>
<path d="M73.375 21.75H43.625C43.142 21.75 42.75 22.1411 42.75 22.625V31.963C42.3335 32.1135 41.9205 32.2789 41.5127 32.4644L42.2372 34.0569C47.8504 31.5028 54.5537 32.7199 58.9174 37.0826C61.727 39.8923 63.274 43.6268 63.274 47.601C63.274 51.5753 61.7261 55.3106 58.9174 58.1194C53.1179 63.9189 43.681 63.9189 37.8806 58.1194C35.071 55.3097 33.524 51.5744 33.524 47.601C33.524 43.6276 35.0719 39.8923 37.8815 37.0826C38.7005 36.2628 39.6105 35.5417 40.5852 34.9397L39.6656 33.4514C38.5754 34.1251 37.5586 34.9301 36.6434 35.8454C33.503 38.9858 31.774 43.1595 31.774 47.601C31.774 50.5419 32.5475 53.3576 33.9711 55.8418L31.0749 58.738C30.0835 57.7466 28.3536 57.7466 27.3622 58.738C26.867 59.2332 26.594 59.8921 26.594 60.5939C26.594 61.2948 26.867 61.9545 27.3622 62.4497L23.031 66.781C22.205 67.6079 21.75 68.706 21.75 69.875C21.75 71.044 22.205 72.1421 23.031 72.9681C23.8841 73.8213 25.0041 74.2474 26.125 74.2474C27.245 74.2474 28.3659 73.8213 29.219 72.9681L33.5502 68.6377C34.0621 69.1496 34.7341 69.4051 35.4061 69.4051C36.079 69.4051 36.751 69.1496 37.2629 68.6377C38.2857 67.614 38.2857 65.9489 37.2629 64.9251L40.1644 62.0245C40.9982 62.5005 41.8619 62.8969 42.7509 63.2171V73.375C42.7509 73.8589 43.1429 74.25 43.6259 74.25H73.3759C73.8589 74.25 74.2509 73.8589 74.2509 73.375V22.625C74.25 22.1411 73.858 21.75 73.375 21.75ZM27.9817 71.7309C26.958 72.7537 25.2929 72.7546 24.2691 71.7309C23.773 71.2356 23.5 70.5768 23.5 69.875C23.5 69.1732 23.773 68.5144 24.2682 68.0191L28.5995 63.6879L32.3121 67.4005L27.9817 71.7309ZM36.0247 67.4005C35.6844 67.7426 35.1287 67.7426 34.7866 67.4005L28.5995 61.2134C28.4341 61.0489 28.3431 60.8284 28.3431 60.5947C28.3431 60.3603 28.4341 60.1406 28.5986 59.9761C28.7692 59.8055 28.9932 59.7206 29.2172 59.7206C29.4412 59.7206 29.6661 59.8055 29.8367 59.9761L36.0239 66.1624C36.366 66.5028 36.366 67.0592 36.0247 67.4005ZM36.0247 63.6879L32.3121 59.9761L34.9459 57.3424C35.4586 58.0485 36.0151 58.7284 36.6442 59.3575C37.2769 59.9901 37.9585 60.5431 38.6611 61.0524L36.0247 63.6879ZM72.5 72.5H44.5V63.7386C45.781 64.0457 47.0882 64.2181 48.399 64.2181C52.6567 64.2181 56.9136 62.5976 60.1546 59.3566C63.295 56.2163 65.024 52.0416 65.024 47.6001C65.024 43.1586 63.2941 38.9849 60.1546 35.8445C56.0334 31.7232 50.044 30.1264 44.5 31.4511V23.5H72.5V72.5Z" fill="#072F4F"/>
<path d="M49.75 26.125H69.875V27.875H49.75V26.125Z" fill="#072F4F"/>
<path d="M62 30.5H69.875V32.25H62V30.5Z" fill="#072F4F"/>
</svg>
