<svg width="96" height="96" viewBox="0 0 96 96" fill="none" xmlns="http://www.w3.org/2000/svg">
<rect width="96" height="96" rx="24" fill="white"/>
<g clip-path="url(#clip0)">
<path d="M72.463 62.748L67.871 61.7275V60.4075C69.5067 59.2635 70.5806 57.3693 70.5806 55.2267V53.4203C70.5806 50.2418 68.2207 47.6106 65.1613 47.17V42.8735L55.5619 39.0339L54.8906 40.7112L63.3548 44.0952V47.1691C60.2954 47.6097 57.9355 50.2409 57.9355 53.4194V55.2259C57.9355 57.3693 59.0094 59.2635 60.6452 60.4066V61.7262L56.129 62.7299L51.6129 61.7262V60.4066C53.2487 59.2626 54.3226 57.3684 54.3226 55.2259V53.4194C54.3226 50.2409 51.9626 47.6097 48.9032 47.1691V42.5807H47.0968V47.1691C44.0374 47.6097 41.6774 50.2409 41.6774 53.4194V55.2259C41.6774 57.3693 42.7513 59.2635 44.3871 60.4066V61.7262L39.871 62.7299L35.3548 61.7262V60.4066C36.9906 59.2626 38.0645 57.3684 38.0645 55.2259V53.4194C38.0645 50.2409 35.7046 47.6097 32.6452 47.1691V44.0952L41.1103 40.7094L40.439 39.0317L30.8387 42.8727V47.1691C27.7793 47.6097 25.4194 50.2409 25.4194 53.4194V55.2259C25.4194 57.3693 26.4933 59.2635 28.129 60.4066V61.7262L23.537 62.7471C21.4541 63.2102 20 65.0233 20 67.1557V76H76V67.1557C76 65.0233 74.5459 63.2102 72.463 62.748ZM59.7419 55.2259V53.4194C59.7419 50.9294 61.768 48.9033 64.2581 48.9033C66.7481 48.9033 68.7742 50.9294 68.7742 53.4194V55.2259C68.7742 57.7159 66.7481 59.742 64.2581 59.742C61.768 59.742 59.7419 57.7159 59.7419 55.2259ZM64.2581 61.5484C64.8856 61.5484 65.4921 61.4536 66.0645 61.2821V62.2025C65.8405 62.5491 65.2182 63.3549 64.2581 63.3549C63.2979 63.3549 62.6757 62.5482 62.4516 62.2034V61.2829C63.0241 61.4536 63.6305 61.5484 64.2581 61.5484ZM43.4839 55.2259V53.4194C43.4839 50.9294 45.51 48.9033 48 48.9033C50.49 48.9033 52.5161 50.9294 52.5161 53.4194V55.2259C52.5161 57.7159 50.49 59.742 48 59.742C45.51 59.742 43.4839 57.7159 43.4839 55.2259ZM48 61.5484C48.6276 61.5484 49.234 61.4536 49.8064 61.2821V62.2025C49.5824 62.5491 48.9601 63.3549 48 63.3549C47.0399 63.3549 46.4176 62.5482 46.1935 62.2034V61.2829C46.766 61.4536 47.3724 61.5484 48 61.5484ZM44.8766 63.4687C45.3931 64.1523 46.4202 65.1613 48 65.1613C49.5798 65.1613 50.6069 64.1523 51.1234 63.4687L55.8137 64.5108C57.0631 64.7882 57.9355 65.8767 57.9355 67.1557V74.1936H38.0645V67.1557C38.0645 65.8758 38.9369 64.7882 40.1863 64.5099L44.8766 63.4687ZM27.2258 55.2259V53.4194C27.2258 50.9294 29.2519 48.9033 31.7419 48.9033C34.232 48.9033 36.2581 50.9294 36.2581 53.4194V55.2259C36.2581 57.7159 34.232 59.742 31.7419 59.742C29.2519 59.742 27.2258 57.7159 27.2258 55.2259ZM31.7419 61.5484C32.3695 61.5484 32.9759 61.4536 33.5484 61.2821V62.2025C33.3243 62.5491 32.7021 63.3549 31.7419 63.3549C30.7801 63.3549 30.1569 62.5456 29.9355 62.2034V61.2821C30.5079 61.4536 31.1144 61.5484 31.7419 61.5484ZM21.8065 67.1557C21.8065 65.8758 22.6788 64.7882 23.9282 64.5099L28.6186 63.4678C29.135 64.1523 30.1622 65.1613 31.7419 65.1613C33.3217 65.1613 34.3489 64.1523 34.8653 63.4687L37.5026 64.0548C36.7295 64.8685 36.2581 65.9561 36.2581 67.1557V74.1936H21.8065V67.1557ZM74.1935 74.1936H59.7419V67.1557C59.7419 65.9561 59.2705 64.8676 58.4974 64.0539L61.1347 63.4678C61.6511 64.1523 62.6783 65.1613 64.2581 65.1613C65.8378 65.1613 66.865 64.1523 67.3814 63.4687L72.0718 64.5108C73.3212 64.7882 74.1935 65.8767 74.1935 67.1557V74.1936Z" fill="#072F4F"/>
<path d="M50.5458 43.4839H45.4528L44.9955 41.2042C44.4556 41.0335 43.9326 40.8156 43.432 40.5554L41.4963 41.8463L37.8954 38.2453L39.1862 36.3097C38.926 35.8082 38.709 35.2852 38.5375 34.7462L36.2578 34.288V29.195L38.5375 28.7377C38.7082 28.1978 38.926 27.6748 39.1862 27.1742L37.8954 25.2385L41.4963 21.6375L43.432 22.9284C43.9335 22.6682 44.4565 22.4512 44.9955 22.2797L45.4537 20H50.5467L51.004 22.2797C51.5439 22.4504 52.0669 22.6682 52.5675 22.9284L54.5032 21.6375L58.1041 25.2385L56.8133 27.1742C57.0735 27.6757 57.2904 28.1987 57.462 28.7377L59.7417 29.1959V34.2889L57.462 34.7462C57.2913 35.286 57.0735 35.8091 56.8133 36.3097L58.1041 38.2453L54.5032 41.8463L52.5675 40.5554C52.066 40.8156 51.543 41.0326 51.004 41.2042L50.5458 43.4839Z" fill="#F4C70B"/>
<path d="M47.0967 29.0322H48.9031V30.8387H47.0967V29.0322Z" fill="#072F4F"/>
<path d="M48.0003 25.4193C44.514 25.4193 41.6777 28.2556 41.6777 31.7419C41.6777 35.2282 44.514 38.0645 48.0003 38.0645C51.4866 38.0645 54.3229 35.2282 54.3229 31.7419C54.3229 28.2556 51.4866 25.4193 48.0003 25.4193ZM48.9035 36.1667V32.6451H47.0971V36.1667C45.0388 35.7469 43.4842 33.9232 43.4842 31.7419C43.4842 29.2518 45.5103 27.2258 48.0003 27.2258C50.4904 27.2258 52.5164 29.2518 52.5164 31.7419C52.5164 33.9223 50.9618 35.7469 48.9035 36.1667Z" fill="#072F4F"/>
<path d="M63.3545 26.3226H65.1609V28.1291H63.3545V26.3226Z" fill="#072F4F"/>
<path d="M63.3545 31.7419H65.1609V33.5484H63.3545V31.7419Z" fill="#072F4F"/>
<path d="M63.3545 37.1613H65.1609V38.9677H63.3545V37.1613Z" fill="#072F4F"/>
<path d="M66.9678 31.7419H68.7742V33.5484H66.9678V31.7419Z" fill="#072F4F"/>
<path d="M66.9678 37.1613H68.7742V38.9677H66.9678V37.1613Z" fill="#072F4F"/>
<path d="M66.9678 42.5807H68.7742V44.3871H66.9678V42.5807Z" fill="#072F4F"/>
<path d="M30.8389 26.3226H32.6453V28.1291H30.8389V26.3226Z" fill="#072F4F"/>
<path d="M30.8389 31.7419H32.6453V33.5484H30.8389V31.7419Z" fill="#072F4F"/>
<path d="M30.8389 37.1613H32.6453V38.9677H30.8389V37.1613Z" fill="#072F4F"/>
<path d="M27.2256 31.7419H29.032V33.5484H27.2256V31.7419Z" fill="#072F4F"/>
<path d="M27.2256 37.1613H29.032V38.9677H27.2256V37.1613Z" fill="#072F4F"/>
<path d="M27.2256 42.5807H29.032V44.3871H27.2256V42.5807Z" fill="#072F4F"/>
</g>
<defs>
<clipPath id="clip0">
<rect x="20" y="20" width="56" height="56" fill="white"/>
</clipPath>
</defs>
</svg>
