<svg width="96" height="96" viewBox="0 0 96 96" fill="none" xmlns="http://www.w3.org/2000/svg">
<rect width="96" height="96" rx="24" fill="white"/>
<g clip-path="url(#clip0)">
<path d="M57.3184 34.5275C57.9672 32.6037 59.6643 31.1686 61.7318 30.8938L63.1219 27.6395L58.339 22.8579L55.5195 24.693C54.4482 24.0897 53.3152 23.62 52.1385 23.2905L51.4422 20H44.5586L43.8622 23.2905C42.6855 23.62 41.5517 24.0897 40.4813 24.693L37.6618 22.8579L32.8828 27.6368L34.2465 30.8855C36.3193 31.162 37.9842 32.6685 38.6506 34.6126L38.9677 33.9188C40.5854 30.4016 44.1304 28.129 47.9999 28.129C51.8351 28.129 55.3678 30.3725 56.9987 33.8465L57.3184 34.5275Z" fill="#F4C70B"/>
<path d="M55.4171 44.6328L51.6119 43.6806V43.2479C53.2953 42.073 54.3224 40.1321 54.3224 38.0645V36.4856C54.3224 32.9768 51.5731 30.0404 48.1939 29.9381C46.4624 29.883 44.835 30.519 43.5975 31.7203C42.3591 32.9217 41.6773 34.5328 41.6773 36.2581V38.0645C41.6773 40.1321 42.7035 42.0721 44.3869 43.247V43.6806L40.5826 44.6328C38.5685 45.136 37.1611 46.938 37.1611 49.0144V50.6096L39.6812 50.0495C40.4075 49.8876 41.1498 49.8065 41.8929 49.8065C42.947 49.8065 43.9949 49.9701 44.9982 50.2907L49.1333 51.6129C49.5796 51.6129 50.0242 51.6751 50.4528 51.7981L56.1289 53.4194H57.0321L58.8386 52.4681V49.0144C58.8386 46.938 57.4312 45.136 55.4171 44.6328Z" fill="#F4C70B"/>
<path d="M76 43.4839H73.9704L70.9454 45.0755C70.6049 44.8877 70.2508 44.7285 69.8688 44.6328L66.0636 43.6806V43.2479C67.747 42.073 68.7742 40.1321 68.7742 38.0645V36.4856C68.7742 32.9768 66.0248 30.0405 62.6457 29.9381C60.9168 29.8874 59.2868 30.519 58.0493 31.7203C56.8109 32.9217 56.129 34.5328 56.129 36.2581V38.0645C56.129 40.1321 57.1553 42.0721 58.8387 43.247V43.6806L55.2258 44.5851L55.4172 44.6328C56.2538 44.8414 56.9762 45.2833 57.5452 45.8668L60.6452 45.0923V42.2318L60.1944 41.9711C58.8008 41.1654 57.9355 39.6677 57.9355 38.0645V36.2581C57.9355 35.0263 58.4224 33.8743 59.3075 33.0165C60.1918 32.1592 61.3649 31.697 62.5914 31.7446C65.0043 31.8169 66.9677 33.944 66.9677 36.4856V38.0645C66.9677 39.6677 66.1016 41.1654 64.707 41.9729L64.2554 42.234L64.2589 45.0923L68.7715 46.2196L56.8091 52.5161H56.2556L50.7026 50.9293C50.266 50.8054 49.8153 50.7547 49.3628 50.7375L45.274 49.4307C43.4107 48.8335 41.3938 48.7445 39.4864 49.167L34.3449 50.3097L34.4181 50.0539L34.4516 48.3846L29.6881 45.6057L31.7419 45.0923V42.2318L31.2912 41.9711C29.8976 41.1654 29.0323 39.6677 29.0323 38.0645V36.2581C29.0323 35.0263 29.5192 33.8743 30.4043 33.0165C31.2886 32.1592 32.4643 31.697 33.6882 31.7446C36.1011 31.8169 38.0645 33.944 38.0645 36.4856V38.0645C38.0645 39.6677 37.1983 41.1654 35.8038 41.9729L35.3522 42.234L35.3557 45.0923L38.4548 45.8668C39.0246 45.2833 39.7462 44.8414 40.5828 44.6328L40.7742 44.5851L37.1604 43.6806V43.2479C38.8438 42.073 39.871 40.1321 39.871 38.0645V36.4856C39.871 32.9768 37.1216 30.0405 33.7424 29.9381C32.0127 29.8874 30.3836 30.519 29.146 31.7203C27.9076 32.9217 27.2258 34.5328 27.2258 36.2581V38.0645C27.2258 40.1321 28.2521 42.0721 29.9355 43.247V43.6806L27.4534 44.3011L22.9544 41.6774H20V60.3933L28.8858 63.3548H30.6164L30.8325 62.598L33.5563 64.2329C33.6009 65.7139 34.7886 66.9056 36.2682 66.9576C36.3202 68.4311 37.5044 69.6152 38.9779 69.6673C39.0299 71.1408 40.2141 72.3249 41.6876 72.377C41.7414 73.8848 42.9762 75.0968 44.4965 75.0968C45.061 75.0968 45.6145 74.9208 46.0798 74.6072L46.8798 75.3138C47.3812 75.7552 48.0269 76 48.6973 76H48.8644C50.3674 76 51.5904 74.785 51.6094 73.2868C53.0961 73.2678 54.3001 72.0638 54.319 70.5771C55.8066 70.5582 57.0115 69.3524 57.0287 67.8648C58.53 67.8295 59.7419 66.603 59.7419 65.0934C59.7419 65.0025 59.7375 64.913 59.7283 64.8226L76 56.6874V43.4839ZM21.8065 43.4839H22.4649L28.9608 47.2728L25.6831 60.3832L21.8065 59.0905V43.4839ZM29.1787 61.5484L27.4009 60.9561L30.5851 48.2205L32.6452 49.4219V49.6799L29.2545 61.5484H29.1787ZM35.3548 64.1487C35.3548 63.8823 35.4624 63.6212 35.6512 63.4325L37.2389 61.8448C37.4277 61.656 37.6888 61.5484 37.9551 61.5484C38.5135 61.5484 38.9677 62.0027 38.9677 62.561C38.9677 62.8274 38.8601 63.0885 38.6714 63.2772L37.0837 64.8649C36.8949 65.0537 36.6338 65.1613 36.3674 65.1613C35.8091 65.1613 35.3548 64.707 35.3548 64.1487ZM38.0645 66.8584C38.0645 66.592 38.1721 66.3309 38.3609 66.1421L39.9486 64.5544C40.1373 64.3657 40.3984 64.2581 40.6648 64.2581C41.2232 64.2581 41.6774 64.7123 41.6774 65.2707C41.6774 65.537 41.5698 65.7981 41.381 65.9869L39.7933 67.5746C39.6046 67.7634 39.3435 67.871 39.0771 67.871C38.5188 67.871 38.0645 67.4167 38.0645 66.8584ZM40.7742 69.568C40.7742 69.3017 40.8818 69.0406 41.0706 68.8518L42.6583 67.2641C42.847 67.0754 43.1081 66.9677 43.3745 66.9677C43.9328 66.9677 44.3871 67.422 44.3871 67.9803C44.3871 68.2467 44.2795 68.5078 44.0907 68.6966L42.503 70.2843C42.3143 70.473 42.0532 70.5807 41.7868 70.5807C41.2285 70.5807 40.7742 70.1264 40.7742 69.568ZM44.4965 73.2903C43.9381 73.2903 43.4839 72.8361 43.4839 72.2777C43.4839 72.0113 43.5915 71.7503 43.7802 71.5615L45.3679 69.9738C45.5567 69.785 45.8178 69.6774 46.0842 69.6774C46.6425 69.6774 47.0968 70.1317 47.0968 70.69C47.0968 70.9564 46.9892 71.2175 46.8004 71.4063L45.2127 72.994C45.0239 73.1827 44.7629 73.2903 44.4965 73.2903ZM48.8644 74.1936H48.6973C48.467 74.1936 48.2465 74.1098 48.075 73.9576L47.3993 73.3618L48.0776 72.6835C48.3197 72.4413 48.5076 72.1534 48.6465 71.8442L49.4677 72.5278C49.6825 72.7068 49.8064 72.9706 49.8064 73.2515C49.8064 73.771 49.3839 74.1936 48.8644 74.1936ZM56.9643 66.0645H56.8082C56.5815 66.0645 56.3601 65.9843 56.1868 65.8387L51.2887 61.757L50.1315 63.1454L54.888 67.1084C55.1019 67.2875 55.2258 67.5512 55.2258 67.8322C55.2258 68.3517 54.8033 68.7742 54.2838 68.7742H54.0866C53.8674 68.7742 53.6531 68.6966 53.4842 68.5554L48.5782 64.4676L47.4209 65.8559L52.1774 69.8194C52.3922 69.9972 52.5161 70.2609 52.5161 70.5418C52.5161 71.0614 52.0936 71.4839 51.5741 71.4839C51.2274 71.4839 50.8896 71.3608 50.6237 71.1399L48.6077 69.4596C48.1636 68.5519 47.2511 67.919 46.1825 67.8811C46.1305 66.4076 44.9463 65.2235 43.4728 65.1714C43.4208 63.698 42.2366 62.5138 40.7632 62.4618C40.7102 60.9539 39.4754 59.7419 37.9551 59.7419C37.2129 59.7419 36.4865 60.0427 35.9617 60.5675L34.374 62.1552C34.2792 62.2501 34.2007 62.3577 34.1208 62.4644L31.3463 60.7995L33.7786 52.2868L39.8763 50.9311C41.4759 50.5734 43.1624 50.651 44.7223 51.1503L46.0529 51.5759L41.542 53.8313C40.5113 54.3477 39.871 55.3846 39.871 56.5374V56.716C39.871 58.3845 41.2285 59.7419 42.8969 59.7419C43.4451 59.7419 43.9844 59.5929 44.4533 59.3102L47.8165 57.2934C48.4922 56.8885 49.3989 56.9771 49.9824 57.502L57.614 64.3701C57.8182 64.5553 57.9355 64.8182 57.9355 65.0934C57.9355 65.6292 57.5002 66.0645 56.9643 66.0645ZM74.1935 55.5707L58.9767 63.1798C58.9274 63.1273 58.8758 63.0774 58.8215 63.0289L51.1913 56.1608C50.5227 55.5575 49.6583 55.2258 48.7577 55.2258C48.0992 55.2258 47.4527 55.4049 46.8864 55.7445L43.5218 57.7622C43.333 57.876 43.1174 57.9355 42.8969 57.9355C42.2239 57.9355 41.6774 57.3891 41.6774 56.716V56.5374C41.6774 56.0721 41.9359 55.6549 42.3513 55.4472L47.3896 52.9281C48.2518 52.4963 49.2755 52.3997 50.2047 52.667L55.8807 54.2882L57.2554 54.3226L74.1935 45.4076V55.5707Z" fill="#072F4F"/>
</g>
<defs>
<clipPath id="clip0">
<rect x="20" y="20" width="56" height="56" fill="white"/>
</clipPath>
</defs>
</svg>
