<svg width="96" height="96" viewBox="0 0 96 96" fill="none" xmlns="http://www.w3.org/2000/svg">
<rect width="96" height="96" rx="24" fill="white"/>
<path d="M72.8447 43.1096C72.4851 41.7437 71.9417 40.4348 71.2243 39.2071L72.3014 37.0538L67.6962 32.4495L65.5429 33.5258C64.3153 32.8091 63.0063 32.2658 61.6404 31.9061L60.8809 29.625H54.37L53.6096 31.9053C52.2437 32.2649 50.9348 32.8082 49.7071 33.5249L47.5538 32.4486L42.9486 37.0529L44.0258 39.2063C43.3091 40.4339 42.7658 41.7429 42.4053 43.1087L40.125 43.8691V50.38L42.4079 51.1413C42.4665 51.3609 42.5321 51.5805 42.6012 51.801L42.7404 52.2306C43.8026 51.0782 45.067 50.1184 46.4792 49.4052C46.3296 48.6694 46.25 47.9064 46.25 47.125C46.25 40.8425 51.3425 35.75 57.625 35.75C63.9075 35.75 69 40.8425 69 47.125C69 50.8201 67.2299 54.0935 64.5008 56.1716C65.0494 57.5156 65.3941 58.9646 65.4676 60.488C66.0381 60.3375 66.6331 60.25 67.25 60.25C67.8608 60.25 68.4505 60.3366 69.0149 60.4836L72.3014 57.1971L71.2243 55.0437C71.9409 53.8161 72.4842 52.5071 72.8447 51.1413L75.125 50.3809V43.87L72.8447 43.1096Z" fill="#F4C70B"/>
<path d="M52.375 50.625V52.375C56.0071 52.375 59.2088 54.5607 60.5283 57.9435L62.1584 57.3065C60.5737 53.2483 56.7334 50.625 52.375 50.625Z" fill="#072F4F"/>
<path d="M41.875 59.375H40.125C39.1599 59.375 38.375 60.1599 38.375 61.125V68.125C38.375 69.0901 39.1599 69.875 40.125 69.875H41.875C42.8401 69.875 43.625 69.0901 43.625 68.125V61.125C43.625 60.1599 42.8401 59.375 41.875 59.375ZM40.125 68.125V61.125H41.875L41.8759 68.125H40.125Z" fill="#072F4F"/>
<path d="M45.375 59.375H47.125V69.875H45.375V59.375Z" fill="#072F4F"/>
<path d="M55.875 59.375H54.125C53.1599 59.375 52.375 60.1599 52.375 61.125V68.125C52.375 69.0901 53.1599 69.875 54.125 69.875H55.875C56.8401 69.875 57.625 69.0901 57.625 68.125V61.125C57.625 60.1599 56.8401 59.375 55.875 59.375ZM55.875 68.125H54.125V61.125H55.875V68.125Z" fill="#072F4F"/>
<path d="M48.875 59.375H50.625V69.875H48.875V59.375Z" fill="#072F4F"/>
<path d="M48 26.125C49.1393 26.125 50.1018 25.3909 50.464 24.375H53.25C53.733 24.375 54.125 24.7679 54.125 25.25V30.3583L54.3691 29.625H55.875V25.25C55.875 23.8028 54.6973 22.625 53.25 22.625H50.464C50.1018 21.6091 49.1393 20.875 48 20.875C46.5527 20.875 45.375 22.0527 45.375 23.5C45.375 24.9473 46.5527 26.125 48 26.125ZM48 22.625C48.483 22.625 48.875 23.0179 48.875 23.5C48.875 23.9821 48.483 24.375 48 24.375C47.517 24.375 47.125 23.9821 47.125 23.5C47.125 23.0179 47.517 22.625 48 22.625Z" fill="#072F4F"/>
<path d="M61.125 30.3583V25.25C61.125 24.7679 61.517 24.375 62 24.375H64.786C65.1482 25.3909 66.1108 26.125 67.25 26.125C68.6973 26.125 69.875 24.9473 69.875 23.5C69.875 22.0527 68.6973 20.875 67.25 20.875C66.1108 20.875 65.1482 21.6091 64.786 22.625H62C60.5527 22.625 59.375 23.8028 59.375 25.25V29.625H60.8809L61.125 30.3583ZM67.25 22.625C67.733 22.625 68.125 23.0179 68.125 23.5C68.125 23.9821 67.733 24.375 67.25 24.375C66.767 24.375 66.375 23.9821 66.375 23.5C66.375 23.0179 66.767 22.625 67.25 22.625Z" fill="#072F4F"/>
<path d="M66.2578 59.4415C66.1326 58.395 65.8815 57.3923 65.5411 56.4315C68.2939 54.0953 69.875 50.7484 69.875 47.125C69.875 40.37 64.38 34.875 57.625 34.875C50.87 34.875 45.375 40.37 45.375 47.125C45.375 47.7288 45.4345 48.3308 45.5229 48.9284C43.2339 50.2164 41.3106 52.1361 40.034 54.524C39.0085 53.8564 37.8404 53.4513 36.625 53.3139V25.964C37.6409 25.6017 38.375 24.6393 38.375 23.5C38.375 22.0527 37.1973 20.875 35.75 20.875C34.3027 20.875 33.125 22.0527 33.125 23.5C33.125 24.6393 33.8591 25.6017 34.875 25.964V53.3051C34.2704 53.3725 33.6833 53.5046 33.125 53.7033V34H28.589C28.2267 32.9841 27.2642 32.25 26.125 32.25C24.6777 32.25 23.5 33.4277 23.5 34.875C23.5 36.3223 24.6777 37.5 26.125 37.5C27.2642 37.5 28.2267 36.7659 28.589 35.75H31.375V54.5844C30.7135 55.028 30.1255 55.5731 29.625 56.1944V45.375H25.964C25.6017 44.3591 24.6393 43.625 23.5 43.625C22.0527 43.625 20.875 44.8027 20.875 46.25C20.875 47.6973 22.0527 48.875 23.5 48.875C24.6393 48.875 25.6017 48.1409 25.964 47.125H27.875V59.4301C23.9436 59.8676 20.875 63.204 20.875 67.25C20.875 71.5918 24.4074 75.125 28.75 75.125H67.25C71.5926 75.125 75.125 71.5918 75.125 67.25C75.125 62.581 71.0186 58.8176 66.2578 59.4415ZM26.125 35.75C25.642 35.75 25.25 35.3571 25.25 34.875C25.25 34.3929 25.642 34 26.125 34C26.608 34 27 34.3929 27 34.875C27 35.3571 26.608 35.75 26.125 35.75ZM23.5 47.125C23.017 47.125 22.625 46.7321 22.625 46.25C22.625 45.7679 23.017 45.375 23.5 45.375C23.983 45.375 24.375 45.7679 24.375 46.25C24.375 46.7321 23.983 47.125 23.5 47.125ZM47.125 47.125C47.125 41.3351 51.8351 36.625 57.625 36.625C63.4149 36.625 68.125 41.3351 68.125 47.125C68.125 50.0475 66.9315 52.7661 64.8236 54.7471C64.2785 53.6796 63.5986 52.697 62.8102 51.8124C63.9696 50.5322 64.625 48.8706 64.625 47.125C64.625 43.2654 61.4846 40.125 57.625 40.125C53.7654 40.125 50.625 43.2654 50.625 47.125C50.625 47.1618 50.6294 47.202 50.6294 47.2387C49.4315 47.3892 48.2739 47.6946 47.1749 48.1356C47.1434 47.7996 47.125 47.4619 47.125 47.125ZM52.375 47.125C52.375 44.2296 54.7296 41.875 57.625 41.875C60.5204 41.875 62.875 44.2296 62.875 47.125C62.875 48.4051 62.4025 49.6231 61.5686 50.5751C59.1073 48.4244 55.8908 47.125 52.375 47.125ZM35.75 22.625C36.233 22.625 36.625 23.0179 36.625 23.5C36.625 23.9821 36.233 24.375 35.75 24.375C35.267 24.375 34.875 23.9821 34.875 23.5C34.875 23.0179 35.267 22.625 35.75 22.625ZM67.25 73.375H28.75C25.3734 73.375 22.625 70.6275 22.625 67.25C22.625 63.8725 25.3734 61.125 28.715 61.1241L29.5821 61.1276L29.6775 60.3611C30.059 57.3047 32.6691 55 35.75 55C37.2288 55 38.6594 55.5399 39.7785 56.5207L40.6771 57.3074L41.1566 56.2136C43.1114 51.7555 47.5144 48.875 52.375 48.875C58.913 48.875 64.2794 53.9946 64.5935 60.5291L64.646 61.6071L65.6899 61.3332C69.7376 60.2736 73.375 63.3659 73.375 67.25C73.375 70.6275 70.6266 73.375 67.25 73.375Z" fill="#072F4F"/>
</svg>
