<svg width="96" height="96" viewBox="0 0 96 96" fill="none" xmlns="http://www.w3.org/2000/svg">
<rect width="96" height="96" rx="24" fill="white"/>
<g clip-path="url(#clip0)">
<path d="M72.839 21.8075C72.1525 21.8075 71.5211 22.0332 71.0018 22.4063C70.4435 21.5085 69.4555 20.9042 68.3228 20.9042C67.6363 20.9042 67.0049 21.1299 66.4855 21.503C65.9275 20.6053 64.9395 20.001 63.8067 20.001C62.0636 20.001 60.6454 21.419 60.6454 23.1623V33.5231C58.4677 32.3408 56.1401 31.7428 53.7041 31.7428C48.6832 31.7428 45.0368 33.999 42.8627 35.8922C42.0589 36.5913 41.6289 37.6048 41.6822 38.6723C41.7364 39.7472 42.2711 40.7227 43.1508 41.3448C44.4623 42.2723 46.2344 42.1767 47.4592 41.1136C48.7228 40.0171 50.8309 38.711 53.7041 38.711C57.3378 38.711 59.7738 41.3619 60.6454 42.4901V51.7058C59.7738 52.834 57.3378 55.4839 53.7041 55.4839C50.8301 55.4839 48.7219 54.1778 47.4592 53.0832C46.2335 52.0174 44.4604 51.9252 43.1508 52.851C42.2711 53.4734 41.7355 54.4489 41.6822 55.5236C41.6289 56.5913 42.0589 57.6045 42.8627 58.3037C45.0377 60.1959 48.6832 62.4521 53.7041 62.4521C55.1421 62.4521 56.5601 62.2372 57.9358 61.8127V76.0006H73.2906V58.5945C74.9742 57.4149 76.0003 55.4775 76.0003 53.4199V24.9682C76.0003 23.2255 74.5823 21.8075 72.839 21.8075ZM74.1938 53.4202C74.1938 55.0154 73.3276 56.5101 71.9331 57.3213L71.4841 57.5823V74.1945H59.7421V59.1828L58.4965 59.694C56.9565 60.3262 55.3443 60.646 53.7039 60.646C49.2419 60.646 45.9895 58.6318 44.0484 56.941C43.6654 56.6068 43.4604 56.1235 43.4856 55.6133C43.5118 55.0949 43.7692 54.6243 44.1937 54.3244C44.8223 53.8783 45.6787 53.928 46.2746 54.4464C47.7695 55.7434 50.2723 57.2889 53.7037 57.2889C58.4701 57.2889 61.4733 53.6498 62.2798 52.5335L62.4515 52.2987V41.8972L62.2798 41.6604C61.4733 40.5449 58.47 36.9041 53.7037 36.9041C50.2742 36.9041 47.7704 38.4503 46.2746 39.7483C45.6794 40.265 44.824 40.3147 44.1937 39.8693C43.7692 39.5694 43.5118 39.0988 43.4856 38.5805C43.4604 38.071 43.6654 37.5869 44.0484 37.2527C45.9903 35.5636 49.2419 33.5494 53.7039 33.5494C56.3044 33.5494 58.7719 34.3326 61.0399 35.8779L62.4517 36.8407V23.1623C62.4517 22.4154 63.0596 21.8075 63.8065 21.8075C64.5535 21.8075 65.1614 22.4154 65.1614 23.1623V24.0656V41.6785H66.9679V24.0656C66.9679 23.3186 67.5758 22.7107 68.3228 22.7107C69.0697 22.7107 69.6776 23.3186 69.6776 24.0656V24.9688V41.6785H71.4841V24.9686C71.4841 24.2217 72.092 23.6138 72.839 23.6138C73.5859 23.6138 74.1938 24.2217 74.1938 24.9686V53.4202Z" fill="#072F4F"/>
<path d="M38.9677 57.9358H33.5927L34.1463 56.6705C34.3495 56.208 34.4517 55.7221 34.4517 55.2262C34.4517 53.2337 32.8313 51.6133 30.8387 51.6133C28.8462 51.6133 27.2258 53.2337 27.2258 55.2262C27.2258 55.7221 27.3278 56.208 27.5311 56.6705L28.0848 57.9358H22.7097C21.2158 57.9358 20 56.72 20 55.2261V49.851L21.2653 50.4046C21.7278 50.6078 22.2137 50.71 22.7095 50.71C24.7021 50.71 26.3225 49.0896 26.3225 47.097C26.3225 45.1045 24.7021 43.4841 22.7095 43.4841C22.2137 43.4841 21.7278 43.5861 21.2653 43.7895L20 44.3431V38.968C20 37.4741 21.2158 36.2583 22.7097 36.2583H25.4961C25.4447 35.9611 25.4193 35.6595 25.4193 35.3551C25.4193 32.3663 27.8498 29.9358 30.8385 29.9358C33.8273 29.9358 36.2578 32.3663 36.2578 35.3551C36.2578 35.6595 36.2326 35.9611 36.181 36.2583H38.9677C40.4616 36.2583 41.6775 37.4741 41.6775 38.968V41.7544C41.9747 41.703 42.2763 41.6776 42.5807 41.6776C45.5695 41.6776 48 44.1081 48 47.0969C48 50.0856 45.5695 52.5161 42.5807 52.5161C42.2763 52.5161 41.9747 52.4909 41.6775 52.4393V55.2257C41.6775 56.72 40.4616 57.9358 38.9677 57.9358Z" fill="#F4C70B"/>
</g>
<defs>
<clipPath id="clip0">
<rect x="20" y="20" width="56" height="56" fill="white"/>
</clipPath>
</defs>
</svg>
