<svg width="96" height="96" viewBox="0 0 96 96" fill="none" xmlns="http://www.w3.org/2000/svg">
<rect width="96" height="96" rx="24" fill="#EEEEEE"/>
<g clip-path="url(#clip0)">
<path d="M71.9167 64.9167H24.0833C22.7953 64.9167 21.75 63.8714 21.75 62.5834V33.4167C21.75 32.1287 22.7953 31.0834 24.0833 31.0834H71.9167C73.2047 31.0834 74.25 32.1287 74.25 33.4167V62.5834C74.25 63.8714 73.2047 64.9167 71.9167 64.9167Z" fill="#F5F5F5"/>
<path d="M48 35.939L35.75 30.4394V29.9167C35.75 28.6287 36.7953 27.5834 38.0833 27.5834H57.9167C59.2047 27.5834 60.25 28.6287 60.25 29.9167V30.4394L48 35.939Z" fill="#F4C70B"/>
<path d="M57.9167 42.75H38.0833C36.7953 42.75 35.75 41.7047 35.75 40.4167V30.5L48 35.75L60.25 30.5V40.4167C60.25 41.7047 59.2047 42.75 57.9167 42.75Z" fill="#F4C70B"/>
<path d="M57.9167 44.5H38.0833C35.8317 44.5 34 42.6684 34 40.4167V29.9167C34 27.665 35.8317 25.8334 38.0833 25.8334H57.9167C60.1683 25.8334 62 27.665 62 29.9167V40.4167C62 42.6684 60.1683 44.5 57.9167 44.5ZM38.0833 29.3334C37.7613 29.3334 37.5 29.5947 37.5 29.9167V40.4167C37.5 40.7387 37.7613 41 38.0833 41H57.9167C58.2387 41 58.5 40.7387 58.5 40.4167V29.9167C58.5 29.5947 58.2387 29.3334 57.9167 29.3334H38.0833Z" fill="#072F4F"/>
<path d="M53.25 29.3333C52.284 29.3333 51.5 28.5493 51.5 27.5833V24.0833C51.5 23.7613 51.2387 23.5 50.9167 23.5H45.0833C44.7613 23.5 44.5 23.7613 44.5 24.0833V27.5833C44.5 28.5493 43.716 29.3333 42.75 29.3333C41.784 29.3333 41 28.5493 41 27.5833V24.0833C41 21.8317 42.8317 20 45.0833 20H50.9167C53.1683 20 55 21.8317 55 24.0833V27.5833C55 28.5493 54.216 29.3333 53.25 29.3333Z" fill="#072F4F"/>
<path d="M47.9999 37.5C47.7432 37.5 47.4865 37.444 47.2485 37.3297L34.9985 31.4963C34.1259 31.081 33.7549 30.038 34.1702 29.1653C34.5855 28.2903 35.6309 27.9193 36.5035 28.3393L47.9999 33.811L59.4985 28.337C60.3735 27.917 61.4142 28.288 61.8319 29.163C62.2472 30.0357 61.8762 31.0787 61.0035 31.494L48.7535 37.3273C48.5132 37.444 48.2565 37.5 47.9999 37.5Z" fill="#072F4F"/>
<path d="M71.9167 66.6667H24.0833C21.8317 66.6667 20 64.835 20 62.5834V33.4167C20 31.165 21.8317 29.3334 24.0833 29.3334H27.5833C28.5493 29.3334 29.3333 30.1174 29.3333 31.0834C29.3333 32.0494 28.5493 32.8334 27.5833 32.8334H24.0833C23.7613 32.8334 23.5 33.0947 23.5 33.4167V62.5834C23.5 62.9054 23.7613 63.1667 24.0833 63.1667H71.9167C72.2387 63.1667 72.5 62.9054 72.5 62.5834V33.4167C72.5 33.0947 72.2387 32.8334 71.9167 32.8334H68.4167C67.4483 32.8334 66.6667 32.0494 66.6667 31.0834C66.6667 30.1174 67.4483 29.3334 68.4167 29.3334H71.9167C74.1683 29.3334 76 31.165 76 33.4167V62.5834C76 64.835 74.1683 66.6667 71.9167 66.6667Z" fill="#072F4F"/>
<path d="M57.9163 76H38.083C37.117 76 36.333 75.216 36.333 74.25C36.333 73.284 37.117 72.5 38.083 72.5H57.9163C58.8823 72.5 59.6663 73.284 59.6663 74.25C59.6663 75.216 58.8823 76 57.9163 76Z" fill="#072F4F"/>
<path d="M48 76.0001C47.034 76.0001 46.25 75.2161 46.25 74.2501V64.9167C46.25 63.9507 47.034 63.1667 48 63.1667C48.966 63.1667 49.75 63.9507 49.75 64.9167V74.2501C49.75 75.2161 48.966 76.0001 48 76.0001Z" fill="#072F4F"/>
</g>
<defs>
<clipPath id="clip0">
<rect x="20" y="20" width="56" height="56" fill="white"/>
</clipPath>
</defs>
</svg>
