<svg width="96" height="96" viewBox="0 0 96 96" fill="none" xmlns="http://www.w3.org/2000/svg">
<rect width="96" height="96" rx="24" fill="white"/>
<path d="M50.9238 50.7097C56.411 50.7097 60.8592 46.2614 60.8592 40.7742C60.8592 35.287 56.411 30.8387 50.9238 30.8387C45.4365 30.8387 40.9883 35.287 40.9883 40.7742C40.9883 46.2614 45.4365 50.7097 50.9238 50.7097Z" fill="#F4C70B"/>
<path d="M66.8779 27.4886L65.4914 28.6457C68.1333 31.8124 69.6517 35.7712 69.8495 39.8773L67.1443 39.8728C66.9628 36.5299 65.784 33.3804 63.6831 30.7186L62.2651 31.8368C62.8612 32.5928 63.3652 33.3966 63.7933 34.2321L60.5652 35.8462C58.7669 32.3426 55.1251 29.9355 50.9233 29.9355C48.7212 29.9355 46.5968 30.5957 44.7822 31.8467L45.8074 33.3334C47.3194 32.292 49.0879 31.7419 50.9233 31.7419C55.9037 31.7419 59.9555 35.7938 59.9555 40.7742C59.9555 41.3405 59.8968 41.8987 59.7938 42.4461L56.3282 41.0596C56.3336 40.9648 56.3426 40.8708 56.3426 40.7742C56.3426 37.7854 53.912 35.3548 50.9233 35.3548C48.7727 35.3548 46.8253 36.6311 45.9609 38.6056L47.6156 39.3308C48.1928 38.0121 49.4907 37.1613 50.9233 37.1613C52.9158 37.1613 54.5362 38.7817 54.5362 40.7742C54.5362 42.7667 52.9158 44.3871 50.9233 44.3871C49.4907 44.3871 48.1928 43.5363 47.6156 42.2185L45.9609 42.9437C46.8253 44.9173 48.7727 46.1936 50.9233 46.1936C53.1777 46.1936 55.1133 44.8089 55.9289 42.8462L59.2826 44.1875C59.0388 44.7818 58.7344 45.3526 58.364 45.8901L59.8508 46.9152C61.1017 45.1006 61.762 42.9763 61.762 40.7742C61.762 39.6397 61.5849 38.5468 61.2607 37.519L64.5204 35.8896C65.0804 37.4395 65.3749 39.0825 65.3749 40.7742C65.3749 48.0966 59.8941 54.2639 52.6249 55.1165L52.8345 56.9103C60.7115 55.9863 66.7053 49.5147 67.1389 41.6783L69.8892 41.6828L69.891 44.0791C69.8964 51.3148 66.3332 58.089 60.3602 62.2005L59.9691 62.4697V76H61.7755V63.4136C68.0033 58.9408 71.7029 51.7493 71.6975 44.0773L71.6957 40.7823C71.6957 35.9338 69.985 31.2117 66.8779 27.4886Z" fill="#072F4F"/>
<path d="M50.9234 51.613C53.1255 51.613 55.2499 50.9527 57.0645 49.7017L56.0393 48.215C54.5273 49.2564 52.7588 49.8065 50.9234 49.8065C45.9431 49.8065 41.8912 45.7546 41.8912 40.7742C41.8912 38.9398 42.4412 37.1704 43.4836 35.6575L41.996 34.6323C40.745 36.4478 40.0847 38.5722 40.0847 40.7742C40.0847 45.0086 42.5307 48.673 46.0776 50.4559L44.7336 53.815C39.8156 51.4838 36.4718 46.4871 36.4718 40.7742C36.4718 32.806 42.9552 26.3226 50.9234 26.3226C54.1913 26.3226 57.2821 27.3975 59.8609 29.4324L60.979 28.0144C58.3181 25.9144 55.1686 24.7357 51.8267 24.5532V21.8616C55.9282 22.0567 59.8934 23.5759 63.0529 26.2061L64.2081 24.8179C60.5654 21.7848 55.9463 20.0795 51.2016 20.019C51.1131 20.0181 51.0264 20.0172 50.9388 20.0172C41.1821 20.0172 32.653 26.9675 30.599 36.6348C30.0923 39.022 30.0291 41.4824 30.4094 43.9545L24.3018 54.8772L31.0534 56.8101L31.0678 67.871H40.0992V76H41.9056V66.0646H32.8725L32.858 55.448L26.9925 53.7681L32.2953 44.2842L32.242 43.9699C31.8437 41.6179 31.8843 39.2758 32.3667 37.0105C34.1776 28.4813 41.5019 22.2843 50.0202 21.8643V24.5622C41.4766 25.0346 34.6654 32.115 34.6654 40.7742C34.6654 49.0135 40.8326 55.9511 49.0122 56.9104L49.2218 55.1166C48.2481 55.0028 47.3096 54.786 46.4091 54.4915L47.7504 51.1379C48.7548 51.445 49.8197 51.613 50.9234 51.613Z" fill="#072F4F"/>
<path d="M65.375 20V21.8065H68.614L65.6396 24.7808L66.9168 26.0579L69.8911 23.0836V26.3226H71.6976V20H65.375Z" fill="#072F4F"/>
</svg>
