<svg width="96" height="96" viewBox="0 0 96 96" fill="none" xmlns="http://www.w3.org/2000/svg">
<rect width="96" height="96" rx="24" fill="white"/>
<path d="M52.5162 38.0644H43.484V32.862C41.7788 31.4927 40.7743 29.4207 40.7743 27.2259C40.7743 23.2416 44.0159 20 48 20C51.9842 20 55.2258 23.2416 55.2258 27.2257C55.2258 29.4214 54.2214 31.4935 52.516 32.8618L52.5162 38.0644Z" fill="#F4C70B"/>
<path d="M53.4193 33.5485H48.9031V29.7694C49.9519 29.3955 50.7096 28.4018 50.7096 27.2258C50.7096 25.7319 49.4938 24.5161 47.9999 24.5161C46.506 24.5161 45.2902 25.7319 45.2902 27.2258C45.2902 28.4018 46.0479 29.3954 47.0967 29.7694V33.5485H42.5804V35.355H53.4192L53.4193 33.5485ZM48.0001 26.3226C48.4987 26.3226 48.9033 26.7281 48.9033 27.2258C48.9033 27.7235 48.4987 28.1291 48.0001 28.1291C47.5014 28.1291 47.0968 27.7235 47.0968 27.2258C47.0967 26.7281 47.5014 26.3226 48.0001 26.3226Z" fill="#072F4F"/>
<path d="M55.9421 58.9822L54.963 60.5015C57.9553 62.4307 59.7419 65.6996 59.7419 69.2447V74.1933H48.5185L55.103 62.9066L53.5414 61.9962L48.0001 71.498L42.458 61.9964L40.8964 62.9068L47.4818 74.1935H36.2582V69.2449C36.2582 65.6989 38.0448 62.43 41.0371 60.5008L40.058 58.9814C36.5471 61.2468 34.4517 65.0828 34.4517 69.2449V76H61.5484V69.2449C61.5486 65.0826 59.453 61.2466 55.9421 58.9822Z" fill="#072F4F"/>
<path d="M37.9806 50.7457C37.9806 56.2444 42.4534 60.7172 47.9521 60.7172C53.4508 60.7172 57.9236 56.2444 57.9236 50.7457C57.9236 45.2477 53.4508 40.7742 47.9521 40.7742C42.4534 40.7742 37.9806 45.2479 37.9806 50.7457ZM56.1173 50.7457C56.1173 55.2473 52.4539 58.9109 47.9521 58.9109C43.4503 58.9109 39.7869 55.2475 39.7869 50.7457C39.7869 46.2431 43.4503 42.5805 47.9521 42.5805C52.4539 42.5805 56.1173 46.2431 56.1173 50.7457Z" fill="#072F4F"/>
<path d="M35.7506 54.0732C35.0036 54.2864 34.2466 54.3947 33.5016 54.3947C29 54.3947 25.3364 50.7313 25.3364 46.2295C25.3364 41.727 28.9998 38.0643 33.5016 38.0643C35.9592 38.0643 38.2624 39.1572 39.8224 41.0638L41.2214 39.9195C39.3165 37.5928 36.503 36.2578 33.5006 36.2578C28.0019 36.2578 23.5291 40.7315 23.5291 46.2293C23.5291 51.7281 28.0019 56.2008 33.5006 56.2008C34.4137 56.2008 35.3369 56.069 36.2454 55.8097L35.7506 54.0732Z" fill="#072F4F"/>
<path d="M21.8075 64.7285C21.8075 61.1825 23.594 57.9136 26.5864 55.9844L25.6073 54.4651C22.0965 56.7306 20.001 60.5664 20.001 64.7285V71.4836H31.7429V69.6772H21.8075V64.7285Z" fill="#072F4F"/>
<path d="M72.3754 46.2296C72.3754 40.7316 67.9027 36.2581 62.4039 36.2581C59.4025 36.2581 56.589 37.593 54.6841 39.9198L56.0831 41.0641C57.643 39.1575 59.947 38.0645 62.4039 38.0645C66.9055 38.0645 70.5691 41.7272 70.5691 46.2297C70.5691 50.7313 66.9057 54.395 62.4039 54.395C61.6587 54.395 60.9019 54.2867 60.1549 54.0735L59.6572 55.8094C60.5658 56.0694 61.4899 56.2022 62.4039 56.2022C67.9027 56.2011 72.3754 51.7283 72.3754 46.2296Z" fill="#072F4F"/>
<path d="M70.3937 54.4663L69.4146 55.9856C72.4069 57.9148 74.1935 61.1837 74.1935 64.7288V69.6774H65.1613H63.3548V71.4839H76V64.7288C76 60.5665 73.9043 56.7307 70.3937 54.4663Z" fill="#072F4F"/>
</svg>
