<svg width="14" height="14" viewBox="0 0 14 14" fill="none" xmlns="http://www.w3.org/2000/svg">
<g clip-path="url(#clip0)">
<path d="M13.9965 14V13.9995H14V8.86496C14 6.35313 13.4593 4.41821 10.5228 4.41821C9.11108 4.41821 8.16375 5.19288 7.777 5.9273H7.73616V4.65271H4.9519V13.9995H7.85108V9.3713C7.85108 8.15271 8.08208 6.97438 9.59117 6.97438C11.0781 6.97438 11.1003 8.36505 11.1003 9.44946V14H13.9965Z" fill="#FFFDF2"/>
<path d="M0.230957 4.65356H3.13362V14.0003H0.230957V4.65356Z" fill="#FFFDF2"/>
<path d="M1.68117 0C0.753083 0 0 0.753083 0 1.68117C0 2.60925 0.753083 3.37808 1.68117 3.37808C2.60925 3.37808 3.36233 2.60925 3.36233 1.68117C3.36175 0.753083 2.60867 0 1.68117 0V0Z" fill="#FFFDF2"/>
</g>
<defs>
<clipPath id="clip0">
<rect width="14" height="14" fill="white"/>
</clipPath>
</defs>
</svg>
