<svg width="32" height="32" viewBox="0 0 32 32" fill="none" xmlns="http://www.w3.org/2000/svg">
<g clip-path="url(#clip0)">
<path d="M16.2581 23.2258L6.96774 16.5161V0H28.6452V16.5161L19.3548 23.2258L17.8065 22.1936L16.2581 23.2258Z" fill="#F4C70B"/>
<path d="M13.6175 10.257L12.6973 11.1778L14.8867 13.3672L15.8075 12.447C15.9541 12.5172 16.1043 12.5791 16.2581 12.6333V13.9355H19.3548V12.6338C19.5086 12.5796 19.6588 12.5172 19.8054 12.4475L20.7262 13.3678L22.9156 11.1783L21.9954 10.2576C22.0655 10.111 22.1275 9.96079 22.1817 9.80698H23.4839V6.71021H22.1822C22.128 6.5564 22.0655 6.40621 21.9959 6.25963L22.9161 5.33885L20.7267 3.14943L19.8059 4.06969C19.6588 3.99898 19.5086 3.93705 19.3548 3.88234V2.58066H16.2581V3.88234C16.1043 3.93653 15.9541 3.99898 15.8075 4.06866L14.8867 3.1484L12.6973 5.33782L13.6175 6.25859C13.5474 6.40517 13.4854 6.55537 13.4312 6.70917H12.129V9.80595H13.4307C13.4854 9.96027 13.5474 10.1105 13.6175 10.257ZM13.1613 7.74195H14.2121L14.3117 7.35485C14.3964 7.02763 14.5259 6.71537 14.6968 6.42634L14.9001 6.08156L14.1569 5.33834L14.8867 4.60853L15.6299 5.35176L15.9747 5.1484C16.2637 4.97756 16.576 4.84801 16.9032 4.76337L17.2903 4.66375V3.61292H18.3226V4.66375L18.7097 4.76337C19.0369 4.84801 19.3492 4.97756 19.6382 5.1484L19.983 5.35176L20.7262 4.60853L21.456 5.33834L20.7128 6.08156L20.9161 6.42634C21.087 6.71537 21.2165 7.02763 21.3012 7.35485L21.4008 7.74195H22.4516V8.77421H21.4008L21.3012 9.1613C21.2165 9.48853 21.087 9.80079 20.9161 10.0898L20.7128 10.4346L21.456 11.1778L20.7262 11.9076L19.983 11.1644L19.6382 11.3678C19.3492 11.5386 19.0369 11.6681 18.7097 11.7528L18.3226 11.8524V12.9032H17.2903V11.8524L16.9032 11.7528C16.576 11.6681 16.2637 11.5386 15.9747 11.3678L15.6299 11.1644L14.8867 11.9076L14.1569 11.1778L14.9001 10.4346L14.6968 10.0898C14.5259 9.80079 14.3964 9.48853 14.3117 9.1613L14.2121 8.77421H13.1613V7.74195Z" fill="#FFFDF2"/>
<path d="M17.8065 10.3226C18.945 10.3226 19.871 9.39667 19.871 8.25809C19.871 7.11951 18.945 6.19357 17.8065 6.19357C16.6679 6.19357 15.7419 7.11951 15.7419 8.25809C15.7419 9.39667 16.6679 10.3226 17.8065 10.3226ZM17.8065 7.22583C18.3757 7.22583 18.8387 7.6888 18.8387 8.25809C18.8387 8.82738 18.3757 9.29035 17.8065 9.29035C17.2372 9.29035 16.7742 8.82738 16.7742 8.25809C16.7742 7.6888 17.2372 7.22583 17.8065 7.22583Z" fill="#FFFDF2"/>
<path d="M11.0968 4.64517H0.258057V5.67743H11.0968V4.64517Z" fill="#FFFDF2"/>
<path d="M11.0968 6.70969H1.29031V7.74194H11.0968V6.70969Z" fill="#FFFDF2"/>
<path d="M11.0968 8.7742H2.32257V9.80646H11.0968V8.7742Z" fill="#FFFDF2"/>
<path d="M28.6451 11.6021V12.8619L30.3541 14.0578L19.3378 22.5321L17.8064 21.4601L16.2751 22.5321L5.25883 14.0583L6.96773 12.8625V11.871H11.0968V10.8387H3.35483V11.871H6.58373L3.87096 13.7703V32H31.7419V13.7703L28.6451 11.6021ZM4.90321 15.087L15.3889 23.1525L4.90321 30.4924V15.087ZM6.02425 30.9677L17.8064 22.7205L29.5886 30.9677H6.02425ZM30.7097 30.4924L20.224 23.1525L30.7097 15.087V30.4924Z" fill="#FFFDF2"/>
</g>
<defs>
<clipPath id="clip0">
<rect width="32" height="32" fill="white"/>
</clipPath>
</defs>
</svg>
