<svg width="32" height="32" viewBox="0 0 32 32" fill="none" xmlns="http://www.w3.org/2000/svg">
<g clip-path="url(#clip0)">
<path d="M24.3806 25.7391C14.7909 25.7391 6.98904 17.9375 6.98904 8.34787H8.3803C8.3803 17.1704 15.5577 24.3479 24.3806 24.3479V25.7391Z" fill="#F4C70B"/>
<path d="M13.6021 12.7749L12.3015 9.58997C12.1665 9.25946 11.8452 9.04339 11.488 9.04339L7.70265 9.04309C7.81975 11.8922 8.64988 14.5564 10.0206 16.8631L13.3759 13.7608C13.6517 13.5129 13.7424 13.1182 13.6021 12.7749Z" fill="#FFFDF2"/>
<path d="M9.86132 17.9571L9.42263 17.218C7.96004 14.7567 7.12516 11.9403 7.00747 9.07189L6.97745 8.34787H11.4877C12.1297 8.34787 12.7018 8.73157 12.9455 9.326L14.2458 12.511C14.4967 13.1244 14.3341 13.8348 13.841 14.2785L9.86132 17.9571ZM8.44361 9.73913C8.62639 11.8375 9.22498 13.8891 10.1972 15.7521L12.9036 13.2501C12.9681 13.1916 12.9871 13.1093 12.958 13.0379V13.0373L11.6577 9.85267C11.6297 9.78401 11.5626 9.73913 11.4877 9.73913H8.44361Z" fill="#F4C70B"/>
<path d="M23.6848 21.2399C23.6848 20.8829 23.4687 20.5613 23.1382 20.4264L19.9532 19.1258C19.61 18.9855 19.2153 19.0761 18.9674 19.352L15.8585 22.7037C18.1667 24.0768 20.833 24.9084 23.6848 25.0255V21.2399Z" fill="#FFFDF2"/>
<path d="M24.3806 25.7507L23.6563 25.7207C20.7834 25.6027 17.964 24.7657 15.5028 23.3016L14.7636 22.8615L18.4571 18.8791C18.8928 18.394 19.5999 18.2303 20.216 18.4817L23.4016 19.7826C23.996 20.0245 24.3806 20.597 24.3806 21.2399V25.7507ZM16.9707 22.5277C18.8337 23.5014 20.8874 24.1011 22.989 24.2839V21.2399C22.989 21.1664 22.9435 21.0984 22.8764 21.0707L19.6902 19.7698C19.6183 19.7419 19.536 19.7594 19.4852 19.8171L16.9707 22.5277Z" fill="#F4C70B"/>
<path d="M16.0327 32C7.59387 32 0.728203 25.1346 0.728203 16.6958C0.728203 8.25693 7.59387 1.39127 16.0327 1.39127C16.4173 1.39127 16.7282 1.70245 16.7282 2.08705C16.7282 2.47135 16.4173 2.78253 16.0327 2.78253C8.36069 2.78253 2.11947 9.02375 2.11947 16.6958C2.11947 24.3675 8.36069 30.6087 16.0327 30.6087C23.7044 30.6087 29.9456 24.3675 29.9456 16.6958C29.9456 16.3112 30.2568 16 30.6414 16C31.026 16 31.3369 16.3112 31.3369 16.6958C31.3369 25.1346 24.4715 32 16.0327 32Z" fill="#F7FBFF"/>
<path d="M16.0327 4.17289C15.8547 4.17289 15.6766 4.10512 15.5408 3.9693C15.2692 3.69734 15.2692 3.25717 15.5408 2.98551L16.4402 2.08614L15.5408 1.18647C15.2692 0.914817 15.2692 0.474642 15.5408 0.202987C15.8125 -0.0689645 16.2526 -0.0689645 16.5246 0.202987L17.9159 1.59425C18.1875 1.86591 18.1875 2.30608 17.9159 2.57803L16.5246 3.9693C16.3888 4.10512 16.2107 4.17289 16.0327 4.17289Z" fill="#F7FBFF"/>
</g>
<defs>
<clipPath id="clip0">
<rect width="32" height="32" fill="white"/>
</clipPath>
</defs>
</svg>
