<svg width="16" height="16" viewBox="0 0 16 16" fill="none" xmlns="http://www.w3.org/2000/svg">
<path d="M8 0C3.57834 0 0 3.57803 0 8C0 12.4216 3.57803 16 8 16C12.4216 16 16 12.422 16 8C16 3.57834 12.422 0 8 0ZM8 14.75C4.26925 14.75 1.25 11.731 1.25 8C1.25 4.26922 4.26897 1.25 8 1.25C11.7308 1.25 14.75 4.26897 14.75 8C14.75 11.7308 11.731 14.75 8 14.75Z" fill="#072F4F" fill-opacity="0.6"/>
<path d="M8.78125 7.375H7.21875C6.61566 7.375 6.125 6.88434 6.125 6.28125C6.125 5.67816 6.61566 5.1875 7.21875 5.1875H10.5C10.8452 5.1875 11.125 4.90769 11.125 4.5625C11.125 4.21731 10.8452 3.9375 10.5 3.9375H8.625V3C8.625 2.65481 8.34519 2.375 8 2.375C7.65481 2.375 7.375 2.65481 7.375 3V3.9375H7.21875C5.92641 3.9375 4.875 4.98891 4.875 6.28125C4.875 7.57359 5.92641 8.625 7.21875 8.625H8.78125C9.38434 8.625 9.875 9.11566 9.875 9.71875C9.875 10.3218 9.38434 10.8125 8.78125 10.8125H5.5C5.15481 10.8125 4.875 11.0923 4.875 11.4375C4.875 11.7827 5.15481 12.0625 5.5 12.0625H7.375V13C7.375 13.3452 7.65481 13.625 8 13.625C8.34519 13.625 8.625 13.3452 8.625 13V12.0625H8.78125C10.0736 12.0625 11.125 11.0111 11.125 9.71875C11.125 8.42641 10.0736 7.375 8.78125 7.375Z" fill="#072F4F" fill-opacity="0.6"/>
</svg>
