<svg width="16" height="16" viewBox="0 0 16 16" fill="none" xmlns="http://www.w3.org/2000/svg">
<g clip-path="url(#clip0)">
<path d="M15.5312 7.5313C15.2723 7.5313 15.0624 7.74117 15.0624 8.00004C15.0624 11.8943 11.8942 15.0625 7.99998 15.0625C4.10573 15.0625 0.937526 11.8943 0.937526 8.00004C0.937526 4.10579 4.10573 0.937585 7.99998 0.937585C9.18745 0.937585 10.3425 1.23243 11.3737 1.79424L10.7877 2.38026C10.6536 2.51433 10.6135 2.71592 10.686 2.8911C10.7586 3.06626 10.9295 3.18048 11.1191 3.18048H13.362C13.6209 3.18048 13.8307 2.9706 13.8307 2.71173V0.468838C13.8307 0.279245 13.7165 0.10834 13.5414 0.0357776C13.3661 -0.0368157 13.1645 0.0033091 13.0305 0.137402L12.0612 1.10668C10.8335 0.381776 9.43754 0.000121609 7.99995 0.000121609C5.86309 0.000121609 3.8541 0.832273 2.34311 2.34323C0.83212 3.85426 0 5.86321 0 8.00007C0 10.1369 0.83212 12.1459 2.34311 13.6569C3.85413 15.1679 5.86309 16.0001 7.99995 16.0001C10.1368 16.0001 12.1458 15.1679 13.6568 13.6569C15.1678 12.1459 15.9999 10.1369 15.9999 8.00007C15.9999 7.74117 15.7901 7.5313 15.5312 7.5313Z" fill="#072F4F" fill-opacity="0.6"/>
<path d="M11.0124 7.53115H8.46874V4.98742C8.46874 4.72855 8.25887 4.51868 8 4.51868C7.74112 4.51868 7.53125 4.72855 7.53125 4.98742V7.99989C7.53125 8.25877 7.74112 8.46864 8 8.46864H11.0124C11.2713 8.46864 11.4812 8.25877 11.4812 7.99989C11.4812 7.74102 11.2713 7.53115 11.0124 7.53115Z" fill="#072F4F" fill-opacity="0.6"/>
</g>
<defs>
<clipPath id="clip0">
<rect width="16" height="16" fill="white"/>
</clipPath>
</defs>
</svg>
