<svg width="16" height="16" viewBox="0 0 16 16" fill="none" xmlns="http://www.w3.org/2000/svg">
<path d="M7.99998 0C4.66276 0 1.94775 2.71505 1.94775 6.05224C1.94775 7.42876 2.89658 9.44169 4.76782 12.0351C6.12066 13.9101 7.45167 15.3915 7.50765 15.4536L8.00003 16L8.4924 15.4536C8.54838 15.3915 9.8794 13.9101 11.2322 12.0351C13.1035 9.44169 14.0523 7.4288 14.0523 6.05224C14.0523 2.71505 11.3372 0 7.99998 0ZM7.99998 14.0042C6.33283 12.0552 3.27324 8.06278 3.27324 6.05224C3.27324 3.44592 5.39363 1.32549 7.99998 1.32549C10.6063 1.32549 12.7267 3.44592 12.7267 6.05224C12.7268 8.06278 9.66714 12.0552 7.99998 14.0042Z" fill="#072F4F" fill-opacity="0.6"/>
<path d="M8.00004 8.24793C9.2127 8.24793 10.1958 7.26487 10.1958 6.05221C10.1958 4.83955 9.2127 3.85649 8.00004 3.85649C6.78738 3.85649 5.80432 4.83955 5.80432 6.05221C5.80432 7.26487 6.78738 8.24793 8.00004 8.24793Z" fill="#072F4F" fill-opacity="0.6"/>
</svg>
