<svg width="96" height="96" viewBox="0 0 96 96" fill="none" xmlns="http://www.w3.org/2000/svg">
<rect width="96" height="96" rx="24" fill="#EEEEEE"/>
<path d="M59.9936 32.8686L58.7564 31.6314L54.7734 35.6144C53.8669 34.8461 52.8265 34.2362 51.6951 33.8092C53.6753 32.5711 55 30.3775 55 27.875C55 24.0154 51.8596 20.875 48 20.875C44.1404 20.875 41 24.0154 41 27.875C41 30.3775 42.3248 32.5711 44.3049 33.8092C40.3359 35.309 37.5 39.1371 37.5 43.625V49.75C37.5 52.1624 39.4626 54.125 41.875 54.125V57.2627L36.0064 63.1314L37.2436 64.3686L41.875 59.7373V71.625C41.875 73.5552 43.4448 75.125 45.375 75.125C46.425 75.125 47.3578 74.6507 48 73.9157C48.6423 74.6507 49.575 75.125 50.625 75.125C52.5553 75.125 54.125 73.5552 54.125 71.625V54.125C56.5374 54.125 58.5 52.1624 58.5 49.75V43.625C58.5 41.0446 57.5603 38.6821 56.0106 36.8516L59.9936 32.8686ZM42.75 27.875C42.75 24.9796 45.1046 22.625 48 22.625C50.8954 22.625 53.25 24.9796 53.25 27.875C53.25 30.7704 50.8954 33.125 48 33.125C45.1046 33.125 42.75 30.7704 42.75 27.875ZM56.75 49.75C56.75 51.1973 55.5723 52.375 54.125 52.375V41H52.375V71.625C52.375 72.5901 51.5901 73.375 50.625 73.375C49.6599 73.375 48.875 72.5901 48.875 71.625V50.625H47.125V71.625C47.125 72.5901 46.3401 73.375 45.375 73.375C44.4099 73.375 43.625 72.5901 43.625 71.625V41H41.875V52.375C40.4278 52.375 39.25 51.1973 39.25 49.75V43.625C39.25 38.8003 43.1753 34.875 48 34.875C52.8248 34.875 56.75 38.8003 56.75 43.625V49.75Z" fill="#072F4F"/>
<path d="M30.5 20.875V27C32.4329 27 34 28.5671 34 30.5C34 31.2884 33.7296 32.0076 33.2904 32.593L37.5 35.75L38.1913 36.2689C39.4005 34.6597 40.125 32.6674 40.125 30.5C40.125 25.1844 35.8156 20.875 30.5 20.875Z" fill="#F4C70B"/>
<path d="M70.75 20.875H62.875C60.4626 20.875 58.5 22.8376 58.5 25.25V33.125H70.75C73.1624 33.125 75.125 31.1624 75.125 28.75V25.25C75.125 22.8376 73.1624 20.875 70.75 20.875Z" fill="#F4C70B"/>
<path d="M20.875 67.25V70.75C20.875 73.1624 22.8376 75.125 25.25 75.125H33.125C35.5374 75.125 37.5 73.1624 37.5 70.75V62.875H25.25C22.8376 62.875 20.875 64.8376 20.875 67.25Z" fill="#F4C70B"/>
<path d="M62 24.375H71.625V26.125H62V24.375Z" fill="#072F4F"/>
<path d="M69.875 27.875H71.625V29.625H69.875V27.875Z" fill="#072F4F"/>
<path d="M62 27.875H68.125V29.625H62V27.875Z" fill="#072F4F"/>
<path d="M24.375 69.875H34V71.625H24.375V69.875Z" fill="#072F4F"/>
<path d="M24.375 66.375H26.125V68.125H24.375V66.375Z" fill="#072F4F"/>
<path d="M27.875 66.375H34V68.125H27.875V66.375Z" fill="#072F4F"/>
<path d="M73.375 68.125V53.25H71.625V68.125H69.875V55H68.125V68.125H66.375V60.25H64.625V68.125H62.875V57.625H61.125V68.125H59.375V59.375H57.625V68.125H55.875V69.875H75.125V68.125H73.375Z" fill="#072F4F"/>
<path d="M73.375 71.625H75.125V73.375H73.375V71.625Z" fill="#072F4F"/>
<path d="M55.875 71.625H71.625V73.375H55.875V71.625Z" fill="#072F4F"/>
<path d="M38.025 35.05L36.2663 33.7314L34.4428 32.3638C34.7123 31.7959 34.875 31.1685 34.875 30.5C34.875 28.3878 33.3691 26.6202 31.375 26.2134V21.75V20.875H30.5C25.1931 20.875 20.875 25.1931 20.875 30.5C20.875 35.8069 25.1931 40.125 30.5 40.125C33.5476 40.125 36.352 38.7197 38.1921 36.2697L38.718 35.5698L38.025 35.05ZM33.125 30.5C33.125 31.9473 31.9473 33.125 30.5 33.125C29.0527 33.125 27.875 31.9473 27.875 30.5C27.875 29.0527 29.0527 27.875 30.5 27.875C31.9473 27.875 33.125 29.0527 33.125 30.5ZM30.5 38.375C26.1582 38.375 22.625 34.8418 22.625 30.5C22.625 26.4531 25.6927 23.1098 29.625 22.6731V26.2134C27.6309 26.6202 26.125 28.3878 26.125 30.5C26.125 32.9124 28.0876 34.875 30.5 34.875C31.6112 34.875 32.6157 34.4454 33.3884 33.7603L33.6307 33.9423L36.2286 35.8909C34.7438 37.4799 32.6989 38.375 30.5 38.375Z" fill="#072F4F"/>
</svg>
