<svg width="96" height="96" viewBox="0 0 96 96" fill="none" xmlns="http://www.w3.org/2000/svg">
<rect width="96" height="96" rx="24" fill="#EEEEEE"/>
<path d="M56.129 38.9677C56.129 43.4574 52.4897 47.0967 48 47.0967C43.5103 47.0967 39.871 43.4574 39.871 38.9677C39.871 34.478 43.5103 30.8387 48 30.8387C52.4897 30.8387 56.129 34.478 56.129 38.9677Z" fill="#F4C70B"/>
<path d="M57.034 60.7642C56.2979 61.1854 55.6602 61.5484 54.3191 61.5484C52.9779 61.5484 52.341 61.1854 51.6041 60.7642C50.7657 60.2857 49.8144 59.7419 47.9929 59.7419C46.1719 59.7419 45.2215 60.2857 44.3836 60.7642C43.6475 61.1854 43.0115 61.5484 41.6712 61.5484C40.3327 61.5484 39.6968 61.1854 38.9616 60.7642C38.5395 60.5234 38.0619 60.2504 37.455 60.0498L37.2389 60.0842C37.1891 60.5115 37.1613 60.9424 37.1613 61.3768V69.6774H58.8387V61.3768C58.8387 60.9451 58.8118 60.5159 58.762 60.0917L58.474 60.0727C57.8993 60.2703 57.4398 60.5323 57.034 60.7642Z" fill="#F4C70B"/>
<path d="M48 36.258C48.4975 36.258 48.9032 36.6638 48.9032 37.1613H50.7097C50.7097 35.9855 49.952 34.9919 48.9032 34.6179V32.6451H47.0968V34.6179C46.048 34.9919 45.2903 35.9855 45.2903 37.1613C45.2903 38.655 46.5062 39.8709 48 39.8709C48.4975 39.8709 48.9032 40.2767 48.9032 40.7742C48.9032 41.2717 48.4975 41.6774 48 41.6774C47.5025 41.6774 47.0968 41.2717 47.0968 40.7742H45.2903C45.2903 41.95 46.048 42.9436 47.0968 43.3176V45.2903H48.9032V43.3176C49.952 42.9436 50.7097 41.95 50.7097 40.7742C50.7097 39.2804 49.4938 38.0645 48 38.0645C47.5025 38.0645 47.0968 37.6588 47.0968 37.1613C47.0968 36.6638 47.5025 36.258 48 36.258Z" fill="#072F4F"/>
<path d="M59.7419 68.9286V61.3768C59.7419 57.7728 58.1542 54.3821 55.3855 52.0756C54.7102 51.5128 54.3226 50.6863 54.3226 49.8065C54.3226 48.9266 54.7102 48.1001 55.3855 47.5374C58.1542 45.2308 59.7419 41.8402 59.7419 38.2361V30.6725C60.7907 30.2985 61.5484 29.3048 61.5484 28.129V26.3226C61.5484 24.8288 60.3325 23.6129 58.8387 23.6129H37.1613C35.6675 23.6129 34.4516 24.8288 34.4516 26.3226V28.129C34.4516 29.307 35.2067 30.3113 36.2581 30.6844V38.2361C36.2581 41.8402 37.8458 45.2308 40.6145 47.5374C41.2898 48.1001 41.6774 48.9266 41.6774 49.8065C41.6774 50.6863 41.2898 51.5128 40.6145 52.0756C37.8458 54.3821 36.2581 57.7728 36.2581 61.3768V68.9405C35.2093 69.3145 34.4516 70.3081 34.4516 71.4839V73.2903C34.4516 74.7841 35.6675 76 37.1613 76H58.8387C60.3325 76 61.5484 74.7841 61.5484 73.2903V71.4839C61.5484 70.3059 60.7933 69.3017 59.7419 68.9286ZM59.7419 73.2903C59.7419 73.7878 59.3362 74.1936 58.8387 74.1936H37.1613C36.6638 74.1936 36.2581 73.7878 36.2581 73.2903V71.4839C36.2581 70.9864 36.6638 70.5807 37.1613 70.5807H54.3226V68.7742H38.0645V61.3768C38.0645 58.3104 39.4158 55.4265 41.7714 53.4635C42.8598 52.5558 43.4839 51.2235 43.4839 49.8065C43.4839 48.3894 42.8598 47.0571 41.7714 46.1503C39.4158 44.1864 38.0645 41.3017 38.0645 38.2361V30.8387H39.871V29.0323H37.1613C36.6638 29.0323 36.2581 28.6265 36.2581 28.129V26.3226C36.2581 25.8251 36.6638 25.4194 37.1613 25.4194H58.8387C59.3362 25.4194 59.7419 25.8251 59.7419 26.3226V28.129C59.7419 28.6265 59.3362 29.0323 58.8387 29.0323H41.6774V30.8387H57.9355V38.2361C57.9355 41.3026 56.5842 44.1864 54.2286 46.1495C53.1402 47.0571 52.5161 48.3894 52.5161 49.8065C52.5161 51.2235 53.1402 52.5558 54.2286 53.4626C56.5842 55.4265 57.9355 58.3113 57.9355 61.3768V68.7742H56.129V70.5807H58.8387C59.3362 70.5807 59.7419 70.9864 59.7419 71.4839V73.2903Z" fill="#072F4F"/>
<path d="M47.0968 47.0968H48.9032V48.9033H47.0968V47.0968Z" fill="#072F4F"/>
<path d="M47.0968 50.7097H48.9032V52.5161H47.0968V50.7097Z" fill="#072F4F"/>
<path d="M47.0968 54.3226H48.9032V56.129H47.0968V54.3226Z" fill="#072F4F"/>
<path d="M32.6452 57.9355V47.0968H37.1613V45.2903H30.8387V59.742H31.9188L29.0323 64.36L26.1457 59.742H27.2258V48.9032H25.4194V57.9355H22.8865L29.0323 67.7691L35.178 57.9355H32.6452Z" fill="#072F4F"/>
<path d="M20 20V47.0968H29.0323V45.2903H27.1535C26.7561 42.5273 24.5695 40.3407 21.8065 39.9433V27.1535C24.5695 26.7561 26.7561 24.5695 27.1535 21.8065H68.8465C69.2439 24.5695 71.4305 26.7561 74.1935 27.1535V39.9433C71.4305 40.3415 69.2439 42.5273 68.8465 45.2903H66.9677V47.0968H76V20H20ZM25.3281 45.2903H21.8065V41.7687C23.5732 42.129 24.9677 43.5236 25.3281 45.2903ZM21.8065 25.3281V21.8065H25.3281C24.9677 23.5732 23.5732 24.9677 21.8065 25.3281ZM70.6719 21.8065H74.1935V25.3281C72.4268 24.9677 71.0323 23.5732 70.6719 21.8065ZM70.6719 45.2903C71.0323 43.5236 72.4268 42.129 74.1935 41.7687V45.2903H70.6719Z" fill="#072F4F"/>
<path d="M70.5806 48.9032H68.7742V62.4516H69.8543L66.9677 67.0696L64.0812 62.4516H65.1613V45.2903H58.8387V47.0968H63.3548V60.6452H60.822L66.9677 70.4788L73.1135 60.6452H70.5806V48.9032Z" fill="#072F4F"/>
</svg>
