<svg width="96" height="96" viewBox="0 0 96 96" fill="none" xmlns="http://www.w3.org/2000/svg">
<rect width="96" height="96" rx="24" fill="#EEEEEE"/>
<path d="M48 58.5C53.799 58.5 58.5 53.799 58.5 48C58.5 42.201 53.799 37.5 48 37.5C42.201 37.5 37.5 42.201 37.5 48C37.5 53.799 42.201 58.5 48 58.5Z" fill="#F4C70B"/>
<path d="M27.875 37.9191V39.25C27.875 39.7339 28.2661 40.125 28.75 40.125H32.25C32.7339 40.125 33.125 39.7339 33.125 39.25V37.9191C33.3516 37.8395 33.573 37.7502 33.7882 37.6505L35.1314 38.9936C35.4735 39.3358 36.0265 39.3358 36.3686 38.9936L38.9936 36.3686C39.3358 36.0265 39.3358 35.4735 38.9936 35.1314L37.6505 33.7882C37.7494 33.573 37.8395 33.3516 37.9191 33.125H39.25C39.7339 33.125 40.125 32.7339 40.125 32.25V28.75C40.125 28.2661 39.7339 27.875 39.25 27.875H37.9191C37.8395 27.6484 37.7502 27.427 37.6505 27.2117L38.9936 25.8686C39.3358 25.5265 39.3358 24.9735 38.9936 24.6314L36.3686 22.0064C36.0265 21.6642 35.4735 21.6642 35.1314 22.0064L33.7882 23.3495C33.573 23.2506 33.3516 23.1605 33.125 23.0809V21.75C33.125 21.2661 32.7339 20.875 32.25 20.875H28.75C28.2661 20.875 27.875 21.2661 27.875 21.75V23.0809C27.6484 23.1605 27.427 23.2506 27.2117 23.3495L25.8686 22.0064C25.5265 21.6642 24.9735 21.6642 24.6314 22.0064L22.0064 24.6314C21.6642 24.9735 21.6642 25.5265 22.0064 25.8686L23.3495 27.2117C23.2506 27.427 23.1605 27.6484 23.0809 27.875H21.75C21.2661 27.875 20.875 28.2661 20.875 28.75V32.25C20.875 32.7339 21.2661 33.125 21.75 33.125H23.0809C23.1605 33.3516 23.2498 33.573 23.3495 33.7882L22.0064 35.1314C21.6642 35.4735 21.6642 36.0265 22.0064 36.3686L24.6314 38.9936C24.9735 39.3358 25.5265 39.3358 25.8686 38.9936L27.2117 37.6505C27.427 37.7494 27.6484 37.8395 27.875 37.9191ZM26.4243 35.9635L25.25 37.1378L23.8623 35.75L25.0365 34.5758C25.3148 34.2975 25.3734 33.8661 25.1783 33.524C24.9158 33.0646 24.7136 32.5615 24.5763 32.0304C24.4756 31.6454 24.1283 31.375 23.7292 31.375H22.625V29.625H23.7292C24.1283 29.625 24.4765 29.3546 24.5763 28.9696C24.7136 28.4385 24.9166 27.9354 25.1783 27.476C25.3734 27.133 25.3148 26.7025 25.0365 26.4243L23.8623 25.25L25.25 23.8623L26.4243 25.0365C26.7025 25.3148 27.133 25.3716 27.476 25.1783C27.9354 24.9158 28.4385 24.7136 28.9696 24.5763C29.3546 24.4756 29.625 24.1283 29.625 23.7292V22.625H31.375V23.7292C31.375 24.1283 31.6454 24.4765 32.0304 24.5763C32.5615 24.7136 33.0646 24.9166 33.524 25.1783C33.8661 25.3716 34.2966 25.3148 34.5758 25.0365L35.75 23.8623L37.1378 25.25L35.9635 26.4243C35.6852 26.7025 35.6266 27.1339 35.8218 27.476C36.0843 27.9354 36.2864 28.4385 36.4237 28.9696C36.5244 29.3546 36.8718 29.625 37.2708 29.625H38.375V31.375H37.2708C36.8718 31.375 36.5235 31.6454 36.4237 32.0304C36.2864 32.5615 36.0834 33.0646 35.8218 33.524C35.6266 33.867 35.6852 34.2975 35.9635 34.5758L37.1378 35.75L35.75 37.1378L34.5758 35.9635C34.2966 35.6844 33.8653 35.6266 33.524 35.8218C33.0646 36.0843 32.5615 36.2864 32.0304 36.4237C31.6454 36.5244 31.375 36.8718 31.375 37.2708V38.375H29.625V37.2708C29.625 36.8718 29.3546 36.5235 28.9696 36.4237C28.4385 36.2864 27.9354 36.0834 27.476 35.8218C27.1321 35.6266 26.7025 35.6844 26.4243 35.9635Z" fill="#072F4F"/>
<path d="M34.875 30.5C34.875 28.0876 32.9124 26.125 30.5 26.125C28.0876 26.125 26.125 28.0876 26.125 30.5C26.125 32.9124 28.0876 34.875 30.5 34.875C32.9124 34.875 34.875 32.9124 34.875 30.5ZM27.875 30.5C27.875 29.0527 29.0527 27.875 30.5 27.875C31.9472 27.875 33.125 29.0527 33.125 30.5C33.125 31.9472 31.9472 33.125 30.5 33.125C29.0527 33.125 27.875 31.9472 27.875 30.5Z" fill="#072F4F"/>
<path d="M74.25 62.875H72.9191C72.8395 62.6484 72.7502 62.427 72.6505 62.2118L73.9936 60.8686C74.3358 60.5265 74.3358 59.9735 73.9936 59.6314L71.3686 57.0064C71.0265 56.6642 70.4735 56.6642 70.1314 57.0064L68.7882 58.3495C68.573 58.2506 68.3516 58.1605 68.125 58.0809V56.75C68.125 56.2661 67.7339 55.875 67.25 55.875H63.75C63.2661 55.875 62.875 56.2661 62.875 56.75V58.0809C62.6484 58.1605 62.427 58.2497 62.2118 58.3495L60.8686 57.0064C60.5265 56.6642 59.9735 56.6642 59.6314 57.0064L57.0064 59.6314C56.6642 59.9735 56.6642 60.5265 57.0064 60.8686L58.3495 62.2118C58.2506 62.427 58.1605 62.6484 58.0809 62.875H56.75C56.2661 62.875 55.875 63.2661 55.875 63.75V67.25C55.875 67.7339 56.2661 68.125 56.75 68.125H58.0809C58.1605 68.3516 58.2497 68.573 58.3495 68.7882L57.0064 70.1314C56.6642 70.4735 56.6642 71.0265 57.0064 71.3686L59.6314 73.9936C59.9735 74.3358 60.5265 74.3358 60.8686 73.9936L62.2118 72.6505C62.427 72.7494 62.6484 72.8395 62.875 72.9191V74.25C62.875 74.7339 63.2661 75.125 63.75 75.125H67.25C67.7339 75.125 68.125 74.7339 68.125 74.25V72.9191C68.3516 72.8395 68.573 72.7502 68.7882 72.6505L70.1314 73.9936C70.4735 74.3358 71.0265 74.3358 71.3686 73.9936L73.9936 71.3686C74.3358 71.0265 74.3358 70.4735 73.9936 70.1314L72.6505 68.7882C72.7494 68.573 72.8395 68.3516 72.9191 68.125H74.25C74.7339 68.125 75.125 67.7339 75.125 67.25V63.75C75.125 63.2661 74.7339 62.875 74.25 62.875ZM73.375 66.375H72.2707C71.8717 66.375 71.5235 66.6454 71.4237 67.0304C71.2864 67.5615 71.0834 68.0646 70.8218 68.524C70.6266 68.867 70.6852 69.2975 70.9635 69.5758L72.1377 70.75L70.75 72.1377L69.5758 70.9635C69.2966 70.6844 68.8661 70.6275 68.524 70.8218C68.0646 71.0843 67.5615 71.2864 67.0304 71.4237C66.6454 71.5244 66.375 71.8717 66.375 72.2707V73.375H64.625V72.2707C64.625 71.8717 64.3546 71.5235 63.9696 71.4237C63.4385 71.2864 62.9354 71.0834 62.476 70.8218C62.1321 70.6275 61.7025 70.6844 61.4242 70.9635L60.25 72.1377L58.8623 70.75L60.0365 69.5758C60.3148 69.2975 60.3734 68.8661 60.1782 68.524C59.9157 68.0646 59.7136 67.5615 59.5762 67.0304C59.4756 66.6454 59.1283 66.375 58.7293 66.375H57.625V64.625H58.7293C59.1283 64.625 59.4765 64.3546 59.5762 63.9696C59.7136 63.4385 59.9166 62.9354 60.1782 62.476C60.3734 62.133 60.3148 61.7025 60.0365 61.4242L58.8623 60.25L60.25 58.8623L61.4242 60.0365C61.7025 60.3148 62.133 60.3725 62.476 60.1782C62.9354 59.9157 63.4385 59.7136 63.9696 59.5762C64.3546 59.4756 64.625 59.1283 64.625 58.7293V57.625H66.375V58.7293C66.375 59.1283 66.6454 59.4765 67.0304 59.5762C67.5615 59.7136 68.0646 59.9166 68.524 60.1782C68.867 60.3725 69.2966 60.3148 69.5758 60.0365L70.75 58.8623L72.1377 60.25L70.9635 61.4242C70.6852 61.7025 70.6266 62.1339 70.8218 62.476C71.0843 62.9354 71.2864 63.4385 71.4237 63.9696C71.5244 64.3546 71.8717 64.625 72.2707 64.625H73.375V66.375Z" fill="#072F4F"/>
<path d="M65.5 61.125C63.0876 61.125 61.125 63.0876 61.125 65.5C61.125 67.9124 63.0876 69.875 65.5 69.875C67.9124 69.875 69.875 67.9124 69.875 65.5C69.875 63.0876 67.9124 61.125 65.5 61.125ZM65.5 68.125C64.0527 68.125 62.875 66.9472 62.875 65.5C62.875 64.0527 64.0527 62.875 65.5 62.875C66.9472 62.875 68.125 64.0527 68.125 65.5C68.125 66.9472 66.9472 68.125 65.5 68.125Z" fill="#072F4F"/>
<path d="M47.125 40.125V41.9993C45.6191 42.3904 44.5 43.7484 44.5 45.375C44.5 47.3053 46.0697 48.875 48 48.875C48.9651 48.875 49.75 49.6599 49.75 50.625C49.75 51.5901 48.9651 52.375 48 52.375C47.0349 52.375 46.25 51.5901 46.25 50.625H44.5C44.5 52.2516 45.6191 53.6096 47.125 54.0008V55.875H48.875V54.0008C50.3809 53.6096 51.5 52.2516 51.5 50.625C51.5 48.6947 49.9303 47.125 48 47.125C47.0349 47.125 46.25 46.3401 46.25 45.375C46.25 44.4099 47.0349 43.625 48 43.625C48.9651 43.625 49.75 44.4099 49.75 45.375H51.5C51.5 43.7484 50.3809 42.3904 48.875 41.9993V40.125H47.125Z" fill="#072F4F"/>
<path d="M47.3813 31.1187L48.6186 29.8814L46.6122 27.875H49.75C59.8816 27.875 68.125 36.1184 68.125 46.25H69.875C69.875 35.1524 60.8476 26.125 49.75 26.125H46.6122L48.6186 24.1187L47.3813 22.8814L43.8813 26.3814C43.5392 26.7235 43.5392 27.2765 43.8813 27.6187L47.3813 31.1187Z" fill="#072F4F"/>
<path d="M48.6186 64.8814L47.3814 66.1186L49.3877 68.125H46.25C36.1184 68.125 27.875 59.8816 27.875 49.75H26.125C26.125 60.8476 35.1524 69.875 46.25 69.875H49.3877L47.3814 71.8814L48.6186 73.1186L52.1186 69.6186C52.4607 69.2765 52.4607 68.7235 52.1186 68.3814L48.6186 64.8814Z" fill="#072F4F"/>
<path d="M36.625 48C36.625 54.272 41.728 59.375 48 59.375C54.272 59.375 59.375 54.272 59.375 48C59.375 41.728 54.272 36.625 48 36.625C41.728 36.625 36.625 41.728 36.625 48ZM57.625 48C57.625 53.3069 53.3069 57.625 48 57.625C42.6931 57.625 38.375 53.3069 38.375 48C38.375 42.6931 42.6931 38.375 48 38.375C53.3069 38.375 57.625 42.6931 57.625 48Z" fill="#072F4F"/>
</svg>
