<svg width="32" height="32" viewBox="0 0 32 32" fill="none" xmlns="http://www.w3.org/2000/svg">
<g clip-path="url(#clip0)">
<path d="M22.1229 1.2411C21.7698 1.09428 21.3623 1.2622 21.214 1.61737C21.0666 1.97195 21.2351 2.37914 21.5903 2.52655C27.0685 4.79817 30.6087 10.0957 30.6087 16.0225C30.6087 21.9483 27.0685 27.2459 21.5903 29.5184C18.0279 30.9953 13.973 30.9953 10.4102 29.5184C4.93139 27.2459 1.39126 21.9483 1.39126 16.0225C1.39126 10.1804 4.83509 4.95569 10.1808 2.63177C9.93856 2.25787 9.65977 1.92172 9.30549 1.62956C9.27399 1.6037 9.26121 1.56596 9.23773 1.53505C3.6064 4.16183 0 9.7673 0 16.0225C0 22.5128 3.87717 28.3144 9.87763 30.8036C11.8288 31.612 13.8885 32.0224 16 32.0224C18.1123 32.0224 20.172 31.612 22.1229 30.8036C28.123 28.3144 31.9999 22.5128 31.9999 16.0225C31.9999 9.53131 28.123 3.72879 22.1229 1.2411Z" fill="#FFFDF2"/>
<path d="M9.0264 5.29069C8.93754 5.29069 8.84718 5.27375 8.7601 5.23779C8.40552 5.09096 8.237 4.68408 8.38382 4.32891L9.24723 2.24454L7.16317 1.38173C6.80859 1.2352 6.64007 0.828312 6.7866 0.472843C6.93342 0.117672 7.34239 -0.0502547 7.69577 0.0965693L10.4227 1.22569C10.593 1.29613 10.7283 1.43136 10.799 1.60196C10.8694 1.77256 10.8694 1.96397 10.799 2.13457L9.66928 4.86152C9.55842 5.12901 9.29895 5.29069 9.0264 5.29069Z" fill="#FFFDF2"/>
<path d="M26.4352 16.075C26.4352 21.838 21.7633 26.51 16.0003 26.51C10.2373 26.51 5.56564 21.838 5.56564 16.075C5.56564 10.3121 10.2373 5.64014 16.0003 5.64014C21.7633 5.64014 26.4352 10.3121 26.4352 16.075Z" fill="#F4C70B"/>
<path d="M16 27.2061C9.86278 27.2061 4.86957 22.2129 4.86957 16.0757C4.86957 9.93852 9.86278 4.94531 16 4.94531C22.1372 4.94531 27.1304 9.93852 27.1304 16.0757C27.1304 22.2129 22.1372 27.2061 16 27.2061ZM16 6.33657C10.6299 6.33657 6.26083 10.7053 6.26083 16.0757C6.26083 21.4461 10.6299 25.8148 16 25.8148C21.3703 25.8148 25.7391 21.4461 25.7391 16.0757C25.7391 10.7053 21.3703 6.33657 16 6.33657Z" fill="#F4C70B"/>
<path d="M15.3045 5.64062H16.6957V7.72767H15.3045V5.64062Z" fill="#FFFDF2"/>
<path d="M15.3045 24.4233H16.6957V26.5101H15.3045V24.4233Z" fill="#FFFDF2"/>
<path d="M24.3478 15.3799H26.4355V16.7711H24.3478V15.3799Z" fill="#FFFDF2"/>
<path d="M5.56534 15.3799H7.65297V16.7711H5.56534V15.3799Z" fill="#FFFDF2"/>
<path d="M22.9566 16.7713H15.3045V9.81494H16.6957V15.38H22.9566V16.7713Z" fill="#FFFDF2"/>
</g>
<defs>
<clipPath id="clip0">
<rect width="32" height="32" fill="white"/>
</clipPath>
</defs>
</svg>
